<?xml version="1.0" encoding="UTF-8"?><svg id="Layer_2" xmlns="http://www.w3.org/2000/svg" xmlns:xlink="http://www.w3.org/1999/xlink" viewBox="0 0 590.21 220.44"><defs><style>.cls-1{fill:url(#radial-gradient-2);}.cls-2{fill:url(#linear-gradient-2);}.cls-3{fill:#1c302b;}.cls-4{fill:#647543;}.cls-5{fill:url(#linear-gradient);}.cls-6{fill:#243f39;}.cls-7{fill:url(#radial-gradient);stroke:#9ea2a2;stroke-miterlimit:10;stroke-width:.25px;}</style><linearGradient id="linear-gradient" x1="216.52" y1="114.97" x2="221.28" y2="114.97" gradientTransform="translate(-27.54 92.65) rotate(-23.22)" gradientUnits="userSpaceOnUse"><stop offset="0" stop-color="#7d9157"/><stop offset="1" stop-color="#213f3a"/></linearGradient><linearGradient id="linear-gradient-2" x1="145.02" y1="127.88" x2="152.14" y2="127.88" gradientTransform="translate(-12.35 15.38) rotate(-5.86)" xlink:href="#linear-gradient"/><radialGradient id="radial-gradient" cx="252.43" cy="114.56" fx="252.43" fy="114.56" r="163" gradientTransform="translate(0 10.07) scale(1 .91)" gradientUnits="userSpaceOnUse"><stop offset=".37" stop-color="#7d9157"/><stop offset=".7" stop-color="#32453a"/><stop offset="1" stop-color="#213f3a"/></radialGradient><radialGradient id="radial-gradient-2" cx="217.82" cy="145.27" fx="284.53" fy="65.85" r="106.14" gradientTransform="translate(.91 -67.58) rotate(.25) scale(1 1.46)" gradientUnits="userSpaceOnUse"><stop offset=".57" stop-color="#32453a"/><stop offset=".92" stop-color="#5e744c"/></radialGradient></defs><g id="Layer_1-2"><polyline class="cls-5" points="221.14 111.04 215.46 109.86 218.74 115.76 221.14 111.04"/><polygon class="cls-2" points="151.41 124.62 145.12 129.13 152.32 129.53 151.41 124.62"/><path class="cls-7" d="M221.18,111.22l-2.4,4.71-3.36-5.96c-5.3-.9-11.01-1.35-17.13-1.35-20.47,0-36.39,5.06-47.79,15.15l1.69,4.54-6.93.83c-9.1,10.83-13.66,25.47-13.66,43.95s4.91,34.23,14.71,45.16h29.65c-3.37-1.98-6.33-4.49-8.87-7.56-7.11-8.61-10.66-21.15-10.66-37.63s3.55-28.98,10.66-37.52c7.1-8.53,17.51-12.8,31.21-12.8s24.06,4.27,31.08,12.8c7.02,8.54,10.53,21.04,10.53,37.52s-3.51,29.02-10.53,37.63c-2.5,3.07-5.44,5.58-8.79,7.56h29.54c9.74-10.94,14.63-25.99,14.63-45.16,0-20.77-5.71-36.71-17.14-47.81-6.95-6.76-15.77-11.46-26.44-14.11v.05Z"/><path class="cls-4" d="M292.64,217.86v-63.9h-20.32v-18.48h59.27v18.48h-20.23v63.9h-18.71Z"/><path class="cls-3" d="M142.05,14.17c-1.25,3.89-3.27,6.7-4.36,10.28-1.09,3.74-5.61,18.53-6.07,22.11-1.25,4.52-6.23,21.49-6.23,23.67,0,.78.31,1.56.31,2.49,0,2.49-1.56,4.98-1.56,7.78,0,1.87-1.56,3.58-1.56,5.61,0,.62.16,1.09.16,1.71,0,.93-.16,1.87-.78,2.65-2.8,4.52-3.89,9.65-4.36,14.95-.93,1.87-.31,4.2-1.09,6.23-.62,4.05-1.56,7.32-4.2,9.19-2.02,0-3.73,1.19-5.6,1.19-3.74,0-4.06,1.15-8.73,1.15-6.85,0-5.45-7.78-7.01-13.08.16-1.71-2.96-14.64-3.89-19.31-2.96-4.67-9.5-38.92-14.32-38.92-.47,1.87-7.47,30.05-7.47,32.54,0,2.34-7.26,35.68-10.07,37.13-2.21,1.15-6.04.75-9.4.55-3.57-.22-11.23-2.12-12.93-4.64-1.89-2.8-5.6-10.62-6.07-12.33-1.4-3.27-1.71-6.69-2.8-9.81-1.25-5.45-2.8-10.43-3.27-15.88-1.25-4.36-3.11-8.72-3.74-13.23-.31-2.18-1.4-4.05-1.87-6.23,0-3.27-1.4-6.07-2.49-9.19-2.49-6.7-4.67-13.23-6.7-20.08-.78-2.18-1.87-4.05-2.65-6.38,0-3.74-.93-8.41-1.56-12.14,0-.71.02-1.43.1-2.15.24-1.98,1.58-3.66,3.46-4.33h0c1.8-.64,3.75-.74,5.59-.25,4.44,1.17,11.19,3.69,13.58,3.92,4.52,2.34,7.94,6.85,7.94,11.83,0,.47-.16,1.09-.16,1.56.16,2.96,1.56,5.76,1.56,8.72,0,.62-.16,1.09-.16,1.56,0,1.56.16,3.27.78,4.83,3.11,8.56,9.03,43.6,9.03,45.77.62-1.4.62-2.8.93-4.2.47-1.56,12.14-39.86,12.46-45.62.16-1.87,1.09-3.74,1.56-5.6.78-2.18.47-4.36,1.4-6.54,1.09-2.8.78-6.38,3.43-8.56,2.02-.88,4.04-1.97,6.06-3.1.89-.5,1.92-.69,2.93-.55,2.01.3,4.97.66,6.98.9,1.33.16,2.43,1.07,2.88,2.34,1.43,4.11,3.79,8.18,5.12,12.71.31,3.74.47,7.78,1.87,11.37,1.09,2.96,1.4,6.38,3.11,9.19.31,2.96.31,6.07,1.56,8.56.93,2.02,1.24,4.05,1.56,6.23,1.25,4.52,2.65,8.87,2.65,13.39,0,2.02.78,2.49,1.71,3.74.93-3.43,2.18-6.85,2.49-10.59.16-1.87,1.4-3.27,1.71-5.14.31-2.18.16-4.2.47-6.38,1.09-7.32,4.36-14.64,5.14-21.64.62-4.98,2.8-9.34,4.05-14.01.78-2.65,2.02-4.83,2.02-8.1,0-3.89,2.65-7.47,7.32-7.47,2.96,0,11.99,3.89,11.99,3.89,1.25,0,.89-.14,4.12.43.93.16,1.48.51,1.79,1.13.47,1.4,1.09,2.8,1.25,4.2Z"/><path class="cls-3" d="M193.27,53.56c0,2.96.78,6.54.78,9.5,0,5.14-.78,10.28-.78,15.26,0,7.16-.31,9.65-.31,12.14,0,2.34.78,4.67.78,7.01,0,1.06-.05,2.14-.12,3.23,1.54-.06,3.1-.09,4.68-.09,4.33,0,8.48.22,12.46.65-.15-2.67-.13-5.41-.36-7.99-.31-2.18-1.09-4.05-1.09-6.85.31-5.92,1.4-11.99,1.4-21.02,0-3.43-.31-6.85-.31-10.43,0-3.27.93-6.54.93-9.81s-.31-6.69-.31-10.12c0-1.09,0-2.34.16-3.43,0-5.14-.47-10.28-.47-15.41,0-2.65.62-5.14.62-7.79,0-3.11-2.02-4.67-3.89-6.54-1.09-.78-2.18-1.87-3.58-1.87-2.96,0-9.81,2.34-10.43,4.36-.31,1.87-.16,3.58-.31,5.45-.16,4.67-.78,9.19-.78,13.7,0,7.78,1.4,15.57,1.4,23.51,0,2.18-.47,4.36-.47,6.54Z"/><path class="cls-4" d="M27.88,219.51c-5.48,0-10.73-.84-15.74-2.53-5.01-1.69-9.06-3.83-12.15-6.41l6.14-17.3c2.96,2.35,6.38,4.3,10.26,5.82,3.88,1.53,7.73,2.29,11.58,2.29,2.65,0,4.74-.27,6.29-.82,1.54-.55,2.68-1.33,3.4-2.35.72-1.02,1.09-2.24,1.09-3.65,0-1.8-.69-3.24-2.08-4.3-1.39-1.06-3.2-1.96-5.44-2.71-2.24-.75-4.66-1.45-7.28-2.12-2.62-.67-5.28-1.55-7.99-2.65-2.71-1.1-5.17-2.55-7.37-4.35-2.21-1.8-3.99-4.16-5.34-7.06-1.36-2.9-2.03-6.55-2.03-10.94,0-4.86,1.07-9.3,3.21-13.3,2.14-4,5.39-7.22,9.74-9.65,4.35-2.43,9.77-3.65,16.26-3.65,4.35,0,8.62.61,12.81,1.82,4.19,1.22,7.89,3.04,11.11,5.47l-5.67,17.18c-3.15-2.19-6.27-3.8-9.36-4.83-3.09-1.02-6.08-1.53-8.98-1.53-2.59,0-4.66.35-6.24,1.06s-2.71,1.61-3.4,2.71c-.69,1.1-1.04,2.28-1.04,3.53,0,1.88.69,3.35,2.08,4.41,1.39,1.06,3.18,1.92,5.39,2.59,2.2.67,4.65,1.35,7.32,2.06s5.34,1.59,7.99,2.65c2.65,1.06,5.09,2.47,7.33,4.24,2.24,1.77,4.05,4.08,5.44,6.94,1.39,2.86,2.08,6.45,2.08,10.77,0,4.79-1.09,9.2-3.26,13.24-2.17,4.04-5.44,7.28-9.78,9.71-4.35,2.43-9.8,3.65-16.35,3.65Z"/><path class="cls-4" d="M121.89,149.67c-2.36-4.59-5.75-8.1-10.16-10.53-4.41-2.43-9.64-3.65-15.69-3.65h-30.15v82.38h18.72v-21.54h11.44c6.05,0,11.28-1.23,15.69-3.71,4.41-2.47,7.8-5.96,10.16-10.47,2.36-4.51,3.54-9.94,3.54-16.3s-1.18-11.59-3.54-16.18ZM103.69,174.73c-1.95,2.08-4.89,3.12-8.79,3.12h-10.3v-24.01h10.3c3.91,0,6.84,1.08,8.79,3.24,1.95,2.16,2.93,5.08,2.93,8.77s-.98,6.81-2.93,8.89Z"/><path class="cls-4" d="M358.15,217.86v-63.9h-20.32v-18.48h59.27v18.48h-20.23v63.9h-18.72Z"/><polygon class="cls-4" points="422.62 199.74 422.62 184.68 452.02 184.68 452.02 167.38 422.62 167.38 422.62 153.61 455.99 153.61 455.99 135.48 404.19 135.48 404.19 217.86 457.21 217.86 457.21 199.74 422.62 199.74"/><path class="cls-4" d="M508.54,217.86h20.04l-14.29-25.92c4.04-2.37,7.19-5.65,9.42-9.86,2.36-4.47,3.54-9.89,3.54-16.24s-1.18-11.59-3.54-16.18c-2.36-4.59-5.75-8.1-10.16-10.53-4.41-2.43-9.64-3.65-15.69-3.65h-30.15v82.38h18.72v-21.89h10.12l12,21.89ZM505.52,157.08c1.95,2.16,2.93,5.08,2.93,8.77s-.98,6.83-2.93,8.94c-1.95,2.12-4.88,3.18-8.79,3.18h-10.3v-24.13h10.3c3.91,0,6.84,1.08,8.79,3.24Z"/><path class="cls-4" d="M560.81,219.51c-5.48,0-10.73-.84-15.74-2.53s-9.06-3.83-12.15-6.41l6.14-17.3c2.96,2.35,6.38,4.3,10.26,5.82,3.88,1.53,7.74,2.29,11.58,2.29,2.65,0,4.74-.27,6.29-.82,1.54-.55,2.68-1.33,3.4-2.35.72-1.02,1.09-2.24,1.09-3.65,0-1.8-.69-3.24-2.08-4.3-1.39-1.06-3.2-1.96-5.44-2.71-2.24-.75-4.66-1.45-7.28-2.12-2.62-.67-5.28-1.55-7.99-2.65-2.71-1.1-5.17-2.55-7.37-4.35-2.21-1.8-3.99-4.16-5.34-7.06-1.36-2.9-2.03-6.55-2.03-10.94,0-4.86,1.07-9.3,3.21-13.3,2.14-4,5.39-7.22,9.74-9.65,4.35-2.43,9.77-3.65,16.26-3.65,4.35,0,8.62.61,12.81,1.82,4.19,1.22,7.89,3.04,11.11,5.47l-5.67,17.18c-3.15-2.19-6.27-3.8-9.36-4.83-3.09-1.02-6.08-1.53-8.98-1.53-2.58,0-4.66.35-6.24,1.06-1.58.71-2.71,1.61-3.4,2.71-.69,1.1-1.04,2.28-1.04,3.53,0,1.88.69,3.35,2.08,4.41,1.39,1.06,3.18,1.92,5.39,2.59,2.21.67,4.65,1.35,7.33,2.06,2.68.71,5.34,1.59,7.99,2.65,2.65,1.06,5.09,2.47,7.32,4.24,2.24,1.77,4.05,4.08,5.44,6.94,1.39,2.86,2.08,6.45,2.08,10.77,0,4.79-1.09,9.2-3.26,13.24-2.17,4.04-5.44,7.28-9.78,9.71-4.35,2.43-9.8,3.65-16.35,3.65Z"/><path class="cls-3" d="M160.73,34.72c1.56,0,3.11-.47,4.51-.47,6.85,0,9.96-.62,9.96-6.69,0-1.25.62-2.96.62-4.67,0-3.11-.62-6.54-1.87-8.72l-1.71-.93c-2.49-.16-7.16-.93-9.65-.93-2.34,0-4.83.47-7.01,1.87-.93.78-1.4,3.27-1.4,5.76,0,1.71.16,3.43.47,4.52l-.93,1.25c0,8.25,2.49,9.03,7.01,9.03Z"/><path class="cls-3" d="M152.18,112.46c3.06-1.99,11.15-5.79,11.15-5.79,3.48-1.4,7.17-2.56,11.06-3.48.01-.35.04-.7.04-1.05,0-6.85-.78-12.92-.78-18.84,0-2.49.47-5.61.78-7.16-.31-1.56-.31-3.11-.31-4.67,0-4.98,1.09-9.96,1.09-14.79,0-1.56,0-10.43-2.34-10.43-1.71-1.71-5.76-2.34-8.88-2.34-5.92,0-10.74,1.09-10.74,4.67,0,3.89.62,7.94.62,8.72,0,1.4-.62,7.63-.62,15.73.62,2.96.78,11.37.78,13.55s-1.09,7.94-1.09,20.24c-.15,1.79-.71,3.71-.76,5.65Z"/><path class="cls-3" d="M254.06,118.95c7.87-8.16,18.2-12.93,28.29-13.32,1.22-5.87,1.28-11.1,2.47-16.89.16-.93,0-20.24,0-23.04,0-2.18.47-15.26.47-19.62v-23.2c0-4.67.47-9.5.78-14.01,0-1.56,0-3.27-.62-4.83-1.09-2.34-3.11-3.42-6.07-3.42-5.45,0-13.55,2.34-13.55,6.23,0,1.87.31,3.89.31,5.76,0,4.83-.78,9.5-.78,14.48,0,1.09,0,2.34.31,3.43.78,4.83.78,11.37,1.09,16.35-.9.1-3.87-.38-6.32-.9-1.31-.28-2.62-.61-3.85-1.13-2.54-1.08-5.64-1.08-8.35-1.08-7.01,0-14.17,4.05-17.13,10.28-1.4,2.96-2.96,5.76-2.96,9.03,0,4.83-1.4,8.56-1.4,13.23,0,2.18.31,4.36.31,6.54,0,1.71-.16,3.74-.16,5.45,0,6.47.7,11.78,3.52,17.33,8.88,3.16,16.51,7.8,22.81,13.92.37.36,2.08.46.83-.58ZM252.9,108.52c-6.69-2.02-10.59-19.15-10.59-23.67.78-10.59,2.65-23.35,10.43-24.76,2.8-.47,6.23-.47,8.72-.47,3.11,0,5.29,1.09,5.29,5.76,0,2.34-.31,4.67-.31,6.85,0,4.67-.47,9.34-.47,14.17v1.25c0,6.69-.16,15.73-4.98,18.22-2.49,1.25-5.14,2.18-8.1,2.65Z"/><path class="cls-1" d="M231.79,133.14c-7.64-9.28-18.99-13.99-33.74-13.99s-26.14,4.7-33.86,13.98c-7.63,9.17-11.5,22.66-11.5,40.12s3.87,30.99,11.5,40.22c1.44,1.75,3.04,3.35,4.76,4.79h7l-.1-.07c-3.28-1.92-6.18-4.39-8.62-7.35-7-8.48-10.55-21.12-10.55-37.59s3.55-29.07,10.54-37.47c6.9-8.29,17.22-12.49,30.68-12.49s23.87,4.2,30.68,12.48c6.91,8.41,10.42,21.02,10.42,37.48s-3.51,29.12-10.42,37.6c-2.41,2.95-5.37,5.5-8.63,7.42h7.12c1.71-1.45,3.29-3.06,4.72-4.81,7.54-9.24,11.36-22.77,11.36-40.21s-3.82-30.94-11.36-40.11Z"/><path class="cls-6" d="M275.05,174.45c1.04-.21.28,1.58,3.64-.6.23-.56.51-1.28.81-2,.32-.76.66-1.52,1.02-2.34-3.26-.59-5.14,1.49-5.47,4.94Z"/><path class="cls-3" d="M287.88,149.46c-.07-.16-.14-.32-.21-.49-.43-.05-.85-.11-1.31-.16v-2.2c-2.1.69-1.5,2.39-1.3,4.35,1.05-.56,1.94-1.03,2.82-1.5Z"/><path class="cls-3" d="M299.23,212.58c-.71-.1-1.69-.53-2.08-.22-1.1.87-2.89,0-3.65,1.56-.03.07-.57-.07-.85-.17-.48-.18-.94-.4-1.44-.62.28-.26.57-.53.87-.8-.09-.12-.19-.24-.28-.36-.82.59-1.63,1.18-2.45,1.77-.03-.04-.06-.09-.09-.14,1.32-1.36,2.63-2.72,3.95-4.07-.14-.15-.28-.3-.42-.45-1.14,1.03-2.28,2.05-3.42,3.08-.12-.14-.25-.27-.37-.41,2.11-2.11,4.23-4.23,6.34-6.34-.07-.09-.05-.06-.11-.15-2.29,1.29-4.59,2.58-6.88,3.87-.07-.13-.15-.26-.22-.39,2.21-1.75,5.22-2.43,6.77-5.07-1.16.75-2.32,1.49-3.48,2.24-.04-.06-.07-.12-.11-.18.45-.57.91-1.14,1.36-1.72l-.29-.29c-1.41.93-2.82,1.86-4.23,2.78-.06-.08-.12-.16-.18-.24l3.38-2.81c-.05-.08-.11-.16-.16-.23-.66.22-1.33.43-1.99.65-.04-.14-.08-.28-.12-.41,1.51-.45,3.02-.93,4.54-1.35,1.48-.41,2.98-.77,4.9-1.26-6.34.16-11.33,3.07-16.81,5.46,2.54-3.33,5.88-4.54,9.48-5.28-.05-.13-.09-.25-.14-.38l-4.35.88c-.03-.09-.06-.18-.08-.27,2.57-1.67,5.13-3.34,7.7-5.01-.07-.12-.14-.24-.21-.37-3.3.95-5.93,3.24-8.89,4.94,1.49-2.4,2.91-4.68,4.33-6.96-.1-.09-.21-.19-.31-.28-.33.25-.85.44-.96.76-.36,1.08-1.22,1.85-1.72,2.85-1.02,2.06-3.16,3.25-5.45,3.86-.1-.17-.2-.33-.3-.5,1.2-.67,2.41-1.33,3.61-2-.02-.05-.04-.11-.06-.16-.74.16-1.48.31-2.18.46,1.47-2.84,2.91-5.59,4.33-8.35.03-.06-.06-.18-.22-.63-2.36,3.54-4.59,6.9-6.98,10.5-.27-.65-.39-.94-.55-1.34-.27.31-.5.57-.73.84-.11-.07-.22-.13-.32-.2,1.08-2.33,2.2-4.65,3.23-7,1.1-2.5,2.11-5.03,3.16-7.54-1.35,2.49-2.67,5-4.05,7.47-.27.48-.25,1.5-1.34,1.03-.03-.01-.39.51-.47.82-.75,3.15-2.44,5.77-4.77,8.1,1.86-4.56,3.69-9.13,5.58-13.68.98-2.37,2.26-4.52,4.77-5.61-.49.08-.98.16-1.48.25.03-.38.06-.7.12-1.43-1.03,1.48-1.81,2.61-2.59,3.74-1.17,2.34-2.34,4.69-3.68,7.39-.57-2.41.07-4.17,1.04-5.88-.15-.15-.46-.4-.43-.43.97-1.49,1.98-2.96,2.98-4.43,1.97-1.43,3.94-2.86,5.91-4.29l-.28-.38c-1.95,1.48-3.89,2.97-5.84,4.45,0-.37-.16-.85.01-1.08,1.98-2.58,3.9-5.22,6.07-7.64,1.31-1.46,1.86-1.9,3.39-3.16-.08-.11,1-.88.92-1-2.59,1.84-5.18,3.68-7.68,5.46.81-2.2,2.6-5.48-.18-2.57-1.88,1.97-2.09,5.01-2.56,5.95-.25.51-.87,1.15-1.4.08-1.1.67-2.2,1.35-3.54,2.17.28-6.22,1.5-11.8,3.18-17.3.77-2.5,1.56-3.1,4.2-3.21,1.24-.06,2.1-.57,2.24-2.02-2.24-.46-3.46,1.17-5.14,2.37.22-.85.2-1.54.53-1.87.96-.94,1.98-2.29,3.12-2.44,1.55-.21,2.52-.88,3.49-1.76-2.43-2.18-3.42.59-5.1,1.9.12-.92.18-1.32.23-1.72-.26.16-.51.32-.91.56.05-1.48-.07-2.88,1.63-3.63l-.5,2.64c.96-.86,1.91-1.71,2.95-2.64-.73-.66-1.21-1.09-1.76-1.6-.59.83-1.29,1.35-1.86.4-.54.26-1,.65-1.5.71-2.03.26-3.51,1.37-3.85,3.3-.16.92-.55,1.31-1.36,1.53-.37.1-.7.35-1.04.54,1-.22,2.01-.42,3-.66.96-.24,1.39.11,1.31,1.09-.03.41-.07.82-.13,1.23-.16,1.18-.95,2.35.03,3.55.13.15-.06.59-.14.88-.78,2.89-1.57,5.78-2.42,8.92-.8-1.25-1.54-2.39-2.27-3.54.12-.1.23-.19.35-.28l.73.68c.11-.09.22-.18.33-.27-.55-.7-1.1-1.4-1.66-2.11,2.55-.95,2.63-3.5,3.57-5.77-1.44.66-2.66,1.12-3.76,1.77-.41.24-.84,1.01-.74,1.42.35,1.46-.34,2.26-1.35,2.96-.18-.05-.11-.04-.29-.09.63-2.84.93-5.76,1.7-8.56.15-.54,1.16-.85,1.77-1.26-.5,0-1,0-1.62,0,.76-2.63,1.47-5.21,2.26-7.75.14-.46.51-.99.92-1.19.92-.46,1.95-.69,2.92-1.08,2.43-.98,3.05-3.13,3.54-5.52-2.64.27-3.92,1.94-4.99,3.95-.47.88-1.15,1.66-1.74,2.48.01-1.89.24-3.62.52-5.32l-.34-7.8c-.1-.25-.02-.64.17-1.12-.19-.31-.41-.61-.71-.88-1.24,1.84-1.68,3.93-.52,5.55,1.52,2.11.79,4.13.61,6.23-.03.34-.49.65-.77.97-.01-.02-.03-.03-.04-.05,0,.02.01.05.02.07h0s0,0,0,0l.03-.02c.29,3.54-1.18,6.7-2.29,10.02-.33-1.16-.66-2.32-1.01-3.54,3.78-1.16.06-2.45.12-3.7.38.07.65.12.93.18.02-.1.05-.19.07-.29-.89-.47-1.78-.94-2.67-1.4-.23.18-.27.2-.5.38.23,1,.39,2.02.72,2.98,1.19,3.44,3.08,6.78,1.04,10.55-.15-.09-.93-1.37-1.32-1.8,0-.83,0-1.8,0-2.77,0-1.03.17-2.1-.03-3.09-.13-.64-.8-1.17-1.22-1.75-.13.07-.26.15-.39.23-.07.38-.14.76-.24,1.34-.3-1.05-.53-1.86-.76-2.66-.16.04-.32.08-.48.12-.2.44-.4.89-.59,1.33-.31-.25-.6-.48-.94-.75-.24.67-.43,1.19-.61,1.72-.17-.07-.34-.14-.51-.21.5-.88.91-1.82,1.52-2.61,1.23-1.58,1.4-2.53.46-3.57-.34.43-.69.86-1.14,1.43-.19-1.51-.32-2.74-.52-3.95-.06-.36-.35-.68-.53-1.02-1.21.81-1.8-.61-2.85-.85.45,2.47.51,5,3.66,5.91-.15.14-.31.27-.46.41-.9-.42-1.8-.83-2.7-1.25.11,1.26.32,2.38.94,3.18.67.86,1.87,1.34.86,2.71-.09.13.14.57.32.8.5.65,1.05,1.26,1.59,1.89,1.03-1.15,1.32-1.21,2.17-.11.89,1.15,1.64,2.39,2.34,3.44,1.19,2.94.4,7.13.56,9.92-.16.02-.31.03-.47.05-.31-.65-.53-1.4-.83-2.07-.15-.33-.27-.66-.34-1.01-.61-3.36-1.43-6.59-3.02-9.54-.27.39-.55.79-.83,1.2,0,0-.02,0-.03,0,0,.01,0,.02,0,.04,0,0,.03-.03.03-.03,1.3,1.77,2.56,3.54,2.79,5.86.11,1.1.56,2.17.86,3.25.31.92.66,1.84.92,2.78.09.34.12.9-.07,1.06-.31.26-.92.48-1.24.34-.86-.39-1.64-.97-2.46-1.49,2.16-2.78,1.3-4.57-.6-6.21-.66,1.38-1.33,2.78-2.02,4.23-2.43-2.18-2.39-3.11.02-4.74.97-.66,1.12-2.56.29-3.9-.9.53-1.81,1.07-2.56,1.51-.12.64-.25,1.34-.39,2.03-.15-.01-.29-.02-.44-.03-.48-.97-.9-1.97-1.44-2.91-.57-.98-.46-1.73.25-2.64.61-.78.87-1.83,1.29-2.76-.24-.13-.49-.26-.73-.38-.63,1-1.27,2.01-1.9,3.01l-.11.09c.1.66.21,1.31.34,2.14-1.53-.53-2.77-.95-4.38-1.51.43.75.6,1.39,1.02,1.71,1.06.82,2.16,1.63,3.36,2.2,2.1,1,3.79,4.36,3.15,6.62-.69-.6-1.38-1.19-2.06-1.79-.12.07-.24.14-.36.22.51,1.11,1.02,2.22,1.73,3.77-2.99-2.05-5.6-3.84-8.21-5.62-.08.12-.17.24-.25.36.41.31.77.72,1.23.9,1.71.69,2.38,2.15,3.09,3.68,1.21,2.6.48,1.11,1.86,3.82.16-.64,2.37,2.94,2.48,2.49.11-.02.22-.04.33-.06.26.61.52,1.21.86,1.98.32-1.14.95-1.26,1.28-.39.37.98.45,2.11.49,3.18.07,2.01.02,4.03.02,6.05-1.11-1.55-2-3.02-2.64-4.58-.65-1.58-1.06-3.26-1.58-4.9-.14.05-.29.1-.43.14.48,1.82.96,3.64,1.44,5.46-.29.13-.21.09-.51.22-3.63-5.49-8.03-10.28-13.02-14.54,0,.26.07.44.2.58,1.64,1.73,3.14,3.63,4.97,5.14,1.74,1.44,2.19,3.76,4.04,5.13,1.02.75,1.45,2.26,2.34,3.26,2.1,2.37,2.39,5.24,2.65,8.34-.84-1.81-1.6-3.44-2.36-5.07.2,1.6.66,3.12,1.34,4.53.7,1.44,1.45,2.79.66,4.67-.92-2.84-1.75-5.41-2.66-8.22-.07.62-.12,1.01-.21,1.82-1.27-1.96-2.32-3.59-3.53-5.46v.97c-2.79-2.08-5.57-4.16-8.36-6.24-.08.11-.16.22-.23.33,1.87,1.55,3.87,2.98,5.58,4.69,2.51,2.5,4.92,5.05,6.63,8.31,1.26,2.4,1.42,4.79,1.54,7.34-1.18-2.99-2.36-5.98-3.55-8.98-.11.05-.23.1-.34.15-.02.35-.05.69-.07,1.04.82,1.84,1.64,3.68,2.45,5.52-.15.1-.3.21-.45.31-.63-.66-1.47-1.22-1.84-2-.63-1.34-.98-2.81-1.42-4.23-.01-.05.34-.2.52-.31-.42-.97-.85-1.95-1.27-2.92l-.34.09c.78,4.64,1.55,9.29,2.36,14.13-.59-.18-1.04-.49-1.29-.37-1.52.73-2.03-.32-2.5-1.36-.85-1.88-1.61-3.8-2.43-5.7-.73-1.68-1.48-3.35-2.22-5.03-.04.02-.07.05-.11.08.53,2.42,1.05,4.84,1.59,7.33-1.81-2.01-3.54-3.93-5.26-5.86-.11.1-.22.19-.33.29.86,1.07,1.77,2.09,2.57,3.21,1.26,1.75,2.44,3.55,3.66,5.32.44.65.89,1.3,1.5,2.18-1.34.35-1.61-.04-2.36-.67-.71-.57-1.26-1.34-1.73-1.51.18.52,1.02,2.21,1.18,2.67-2.39.82-2.48,1.65-4.51-.23-.24-.28-1.4-.94-1.51-.93-2.6-.85-5.52-1.81-8.45-2.77,1.58,1.01,3.42,1.61,4.82,2.76,1.31,1.07,3.35.75,4.2,2.58-1.1.23-2.23.46-3.36.69,1.31.13,2.62-.26,3.81-.02.92.18,1.69,1.15,2.31,1.62-.37.28.04.47-.5.96-.23.23-1.07.99-.95,1.15.77-.37,2.13-.86,2.89-1.22.06.08-.24.15-.43.35-.33.39-1.27,1.31-.93,1.1,1.31-.8,2.62,1.16,3.91,1.74-.05.15-2.44-.84-2.48-.68-1.6-.3-1.05.11-2.17.16-.4.02-1.15.47-1.58.67.14.2,4.21.27,4.35.47,0,0-4.13.46-4.13.46.48.43,1.17.32.82.85-.18.26-2.05.91-2.31,1.13-.18-.31-.35-.63-.53-.94-.42,1.17-1.36,1.13-2.35,1.04-1.55-.14-3.1-.26-4.65-.38-.02.14,1.7.22,1.52.45,1.77.36,1.97.69,3.74,1.05-1.18.62-2.37,1.24-3.55,1.86.07.15.69-.14,3.16-.99,2.38-.71,1.67-.54,2.69-.69.05.11.1.23.15.34-.4.44-.8.88-1.38,1.53.87-.25,1.42-.41,2.35-.68-.97,1.62-1.73,2.89-2.58,4.31,1.21-.39,2.35-.76,3.5-1.13.07.18.14.37.22.55-1.14.58-2.28,1.16-3.43,1.74.04.15.08.31.12.46,1.12-.14,2.26-.23,3.37-.44,1.14-.21,2.26-.58,3.4-.79.22-.04.52.37.77.56.53-.15,1.47-.63,1.64-.43,1.02,1.17,1.82.27,2.91-.28-.33.51-.52.81-.92,1.42,2.85-1.2,5.34-2.23,7.82-3.31.73-.32,1.4-.75,1.7.38.53-.09,1.05-.18,1.56-.27l.08.34c-.66.4-1.32.81-1.98,1.21.04.17.09.33.13.5.69-.05,1.38-.09,2.1-.14-.3.26-.6.52-.91.78l.09.38c2.81-.22,5.63-.44,8.49-.67v1.18c.27-.12.42-.17.55-.24,1.55-.93,3.05-1.97,4.66-2.77,1.22-.6,2.59-.89,3.89-1.31.14-.04.29-.03.45-.05-.16.38-.31.73-.51,1.2h3.16c-.39.7-1.21,1.58-1.03,1.96.59,1.2,1.36.03,2.05-.17.29-.09.58-.41.84-.37.66.1,1.3.33,1.94.54.44.15.89.55,1.28.5,2.04-.3,3.7-1.94,5.93-1.67.25.03.54-.36.54-.36-.24-.67-.39-1.11-.54-1.54.68-.19,1.43-.65,2.03-.5,1.02.25,2.87-.18,3.59-1.24-.43-.09-.81-.18-1.45-.31,1.06-.44,1.88-.78,2.7-1.12-.03-.13-.06-.27-.09-.4ZM275.82,154.77c.79-.61,1.26-.97,1.74-1.33.2.26.36.46.49.63.52-.57.97-1.06,1.59-1.74.71,2.25-.62,3.61-1.43,5.18.3-1.63-.25-2.63-2.39-2.74ZM253.59,165.81c1.94,1.25,3.24,2.54,5.21,3.86.12.08,2.15,3.37,2.15,3.45-2.91-.27-4.39-5.28-7.36-7.31ZM251.16,206.31c-.11.02-.22.04-.33.05-.19-1.06-.95-3.43-1.13-4.49.19-.07.96,1.18,1.15,1.11.42.63.83,1.25,1.4,2.1-.56-.05-.82-.07-1.18-.1.04.46.07.89.11,1.32ZM257.46,201.91c-.39-1.38-.78-2.75-1.16-4.13.15-.04.3-.09.44-.14.44,1.35.88,2.71,1.32,4.07-.2.07-.4.13-.6.2ZM278.77,179.57c-1.01,1.76-1.94,3.38-2.89,5.04-.38-2.89.51-4.53,2.89-5.04ZM275.62,180.62c-.27,1.32-.51,2.49-.73,3.6-.93-2.49-.84-3.09.73-3.6ZM270.08,166.64c.41.65.63,1.05.9,1.42.36.49.68,1.05,1.14,1.42,2.99,2.35,3.1,2.66,1.86,6.44-2.2-2.61-5.31-4.78-3.91-9.28ZM273.55,185.5c.21.04.42.07.63.11-.31,1.42-.61,2.84-.92,4.25-.14-.03-.29-.05-.43-.08.24-1.43.48-2.85.72-4.28ZM273.03,179.89c-.69-1.75-1.39-3.5-2.08-5.25,1.84,1.24,2.89,2.87,2.08,5.25ZM267.54,171.53c.28.22.63.34.94.54,1.76,1.14,1.78,1.44.47,3.08-.45.57-.74,1.27-1.09,1.91-.22-.92-.45-1.85-.74-3.02-.15,1.4-.27,2.54-.41,3.87-2.68-2.33-2.6-3.65-.97-6,.47-.67,1.03-1,1.8-.38ZM268.8,176.26c-.12,1.56-.23,2.83-.33,4.1h-.62v-3.29c.22-.19.46-.39.94-.81ZM264.02,178.7c-.31-.61-.05-1.5-.05-2.27.14-.02.27-.04.41-.05.95,2.01,1.9,4.02,2.85,6.03-.21.09-.41.18-.62.27-.88-1.32-1.88-2.58-2.59-3.98ZM264.93,187.35c-.28-1.02-.49-1.76-.61-2.19-.32.59-.77,1.44-1.22,2.3-.17-.08-.21-.59-.27-1.2.06-1.12.15-1.39.2-1.88v-5.02c1.99,2.81,2.83,6.16,1.9,7.99ZM262.64,168.85c.63-.23,1.59.35,2.37.65.41.16.75.5,1.05.7-.84,1.06-1.63,2.04-2.73,3.42-.28-1.08-.5-1.93-.71-2.77,0-.04.08-.12.07-.13-.59-.63-.94-1.55-.05-1.88ZM261.38,204.12c-.46-2.89-.91-5.78-1.37-8.68.18,0,.36,0,.53,0,.21,2.9,2.15,5.54.84,8.68ZM263.34,197.27c-.69-1.98-1.36-3.97-2.08-5.95-.39-1.06-.3-1.95,1.01-3.04.46,3.21.88,6.08,1.29,8.95-.07,0-.15.02-.22.03ZM264.88,197.26c-.66-2.81-1.33-5.62-1.99-8.43.29-.05.58-.1.87-.16.44,2.85.88,5.7,1.32,8.55l-.2.04ZM265.57,201.85c-.07-1.38-.13-2.77-.2-4.15l.31-.03c.18,1.37.35,2.74.53,4.11-.21.02-.43.05-.64.07ZM266.15,196.98c-.6-2.7-1.2-5.39-1.85-8.27,1.31.73,1.85,2.38,2.22,6.27.24-.36.39-.59.54-.81.08.03.16.07.24.1-.38.89-.76,1.79-1.15,2.7ZM268.88,188.49c-.41-1.91-.82-3.82-1.24-5.72.25-.02.49-.05.74-.07.41,1.88.83,3.76,1.24,5.64-.25.05-.5.1-.75.15ZM270.55,181.09c.35,2.15.76,4.28,1.11,6.42.04.27-.18.58-.28.88-.29-.13-.82-.23-.85-.41-.74-4.26-2.75-8.46-.75-12.88.04-.08.15-.12.45-.37.93,2.47,1.81,4.79,2.68,7.11l-.61.25c-.41-.89-.83-1.77-1.24-2.66-.15.03-.3.06-.46.09-.02.52-.14,1.05-.05,1.55ZM272.48,199.18c.71-2.61,1.42-5.21,2.12-7.82.62,2.98-.14,5.58-1.75,7.96-.13-.05-.25-.09-.38-.14ZM279.29,203.75c1.23-.84,2.45-1.68,3.68-2.51l.36.47-3.54,2.68c-.17-.21-.33-.43-.5-.64ZM280.71,209.07c-.09-.11-.18-.22-.27-.32,1.4-.98,2.8-1.97,4.2-2.95.1.14.21.29.31.43-1.41.95-2.82,1.9-4.24,2.84Z"/><path class="cls-3" d="M247.38,123.74c-5.02,7.81-10.55,20.14-18.16,28.95-.14.16-1.57.94-1.72,1.1-.16.18.7.08.54.26-.49.53-.81,1.24-1.33,1.72-.33.32-.77.49-1.16.74-.26.17-.5.38-.74.59-1.44,1.25-2.86,2.39-4.53,3.32-.79.44-1.61.84-2.45,1.19-.27.11-2.35,1.06-2.51.88-.38-.42-.77-.83-1.19-1.21-.02,0-.04-.02-.08-.04-.32-.17-.74-.51-.99-.66-1.54-.91-3.08-1.8-4.66-2.64.2-.38.45-1.04.61-1.31.08-.14.3-.17.46-.5.23-.48,1.05-2.99,1.16-3.52.05-.23-.16-.56-.21-.61-.13-.15.62.2.59.09-.09-.38-.76-1.21-.81-1.27-.06-.07.02-.38-.07-.57-.04-.09-.71-.59-.86-.89-.21-.39.08-1.73.25-2.17.25-.64.48-1.31.74-1.88.67-1.46.39-2.32,1.39-3.8.38-.56.52-.48.7-1.07.41-1.32.57-2.79.98-4,.04-.13.07-.29.08-.43.03-.63.13-.6-.2-1.6-.21-.4-.57-.71-.79-.71-.39.01-.65.07-.78.08-.7.02-3.09.98-3.82,1.32-.48.23-1.56.78-2,1.04-.63.37-1.4,1.39-2,1.85-.22.17-.5.28-.73.44-.93-.09-1.91-.05-2.84-.26-.33-.07-2.21-.89-2.33-.77-.03.03.02.26,0,.35-.94-.58-1.97.06-2.87-.74-.75-.67-1.81-1.93-2.54-2.72-.06-.07-.22-.19.25-.53.21-.15-.74-.09-.81-.13-.05-.03-.45-.59-.6-.74-.41-.42-1.27-1.31-1.7-1.62-.27-.2-1.93-1.09-2.17-1.11-.18-.01-.63.38-.73.54-.57.9-.74,4.82-.79,6.08-.05,1.23.3,2.12-.41,3.35-.02.03-.04.06-.07.09,0,.02,0,.03,0,.05.05,2.02-.59,4.08-1.64,5.8-.57.93-1.31,1.72-1.55,2.82-.29,1.33-.06,2.79.35,4.08.33,1.04.8,2.02,1.31,2.96-.14-.04-.28-.06-.41-.11-.42.44-1.04,1.09-1.08,1.15-.08.12-.28.78-.37.86-.09.08-.29,0-.32.03-.04.03.13.28.07.36-.07.09-.86.37-.77.81l.35-.23c.09.11-1.04,1.93-1.18,2.2-.04.08.26-.11.22-.02-.07.14-.7.96-.7,1-.03.2.44-.06.33.09-.04.05-.11.14-.19.28-.03.04-.14.17-.17.3-.02.08-.17.41-.19.46-.04.09.27-.25.26-.15-.02.18-.09.38-.18.58-.06.14-.12.36-.21.49-.02.03-.11.2-.17.4,0,.02.19-.17.21-.07.1.62-.64,1.34-.71,1.45.79-.11.18.99.12,1.36-.06.33.13.86-.02,1.26-.08.21-.32.18-.33.19-.04.05.38.67.34,1.12-.03.28-.18.44-.2.59-.02.2.26.69.18.92-.02.07-.25,1.01-.27,1.1-.01.05.24-.25.29-.22.11.07,1,2.07,1.03,2.11.03.04-.17.33.08.45l.12-.35c.49.47-.63.47.06.76.06.33-.22.03-.23.06-.16.28.34.29.35.41l-.23.41c.11.05.56.1.58.12.01.02-.12.25-.12.4.03,1.05.83,1.67,1.4,2.46.44.62.97,2.17,1.33,2.81.04.07.25-.72.29-.58.02.07.02.22,0,.4-.07.71-.11,1.42-.05,2.13.03.4.02.81.07,1.19.08.6.64,3.6.89,4.01.35.56.63.83,1.04,1.54.14.24.5.41.59.71.08.29-.1.68-.07.7.02.02.32-.02.42.11.08.1-.08.3-.01.47.3.75,1.86,2.4,2.44,3,.29.29.81.54,1.06.86.64.83.7,2.1,1.26,3.07.08.13.07.42.09.43.06.07,1.1,2.11,1.05,2.74-.1,1.32-.91,1.88-.59,3.62.05.27.3.31.36.7.12.85-.07,3.04-.15,3.98-.04.5-.25.99-.2,1.5-.63.43-.76.64-.76.64-.25.32-.37.65-.49,1.05-.35,1.13-.41,2.48-.2,3.61.08.39.42,1.34.59,1.42.27.12.56.41.82.47,1.25.28,4.22-.04,4.67-1.47.65-2.05.66-5.13.85-7.33.12-1.43.45-3.24.42-4.66,0-.14-.09-.28-.07-.43l-.14-.56c.33-2.04-.94-3.12-1.25-5.01-.19-1.15-.23-2.68-.25-3.84,0-.32.2.36.18.2,0-.07-.25-1.18-.28-1.28-.07-.24-.25-1.74-.22-1.96.07-.5.51-1.05.57-1.58l.12.7c.13.17.48-1.34.51-1.51.22-1.18.43-2.34.71-3.52.06-.26.18-.61.36-.81.24-.69.44-.76.41-1.17.26.16.3.55.58.76.22.16.79.24.88.41.09.15-.08.72-.08.82,0,.08.23-.35.23-.3,0,.3-.27.73-.22,1.17.03.28.31.62.35.84.01.06,0,.43-.03.86.26-.33.23-.12.35.22.11.31.56,1.74.59,1.99.08.76,0,.61.22,1.41.29,1.11.17,2.05.27,3.12.18,1.87.67,3.11.46,5.14-.31,2.96.09,5.14.36,8.08.21,2.25.15,5.19.88,7.3.67,1.94,2.4,2.38,4.32,2.22.96-.08,1.19-.47,1.9-.67.21-.06.4-1.24.36-1.46-.03-.14-.66-1.2-.77-1.46-.57-1.37-1.13-2.84-1.31-4.29-.31-2.43-.64-5.66-.47-8.08.08-1.22.56-1.98.77-3.11.16-.84.38-1.41.6-2.18.16-.56,1.13-4.06,1.32-4.23.13-.12.34-.74.55-.67.16.06.45,1.02.6,1.18.04-.17-.04-2.29.08-1.57.03.17.02.42.11.59,0,0,.01.01.02.02,1.21-5.21,2.86-10.3,4.66-15.34.08-.24.2-.45.3-.67,16.97,4.01,37.87-9.28,49.69-20.69,1.41-1.36,2.75-2.8,4.06-4.27,4.28-4.81,8.19-9.93,12.6-14.62s9.24-9.4,15.24-11.5c2.39-.84,5.03-1.48,7.56-1.65,4.04-.28,7.14,1.25,10.97,1.17-13.73-31.43-51.22-29.56-68.89-2.1ZM295.31,124.48c-7.89,3.67-14.37,10.38-20.29,17.33v-.02s-.02.02-.03.03l-.34-7.91c-.56-1.36,4.44-7.13,2.91-7.72-1.19-.45-4.16.52-7.09,1.9-2.94,1.38-5.83,3.18-6.84,4.35v-.02s-.02.02-.03.03l.36-5.73,4.29-8.97c-2.53.55-5.43,1.55-7.96,1.82-1.54.17-4.99.41-6.24-.63,4.15-4.3,8.98-7.66,14.09-9.93,15.35-6.83,33.29-3.89,43.09,12.74-.01,0-.02,0-.04,0,0,0,0,0,0,.01-5.93-.59-11.17.52-15.9,2.71Z"/><path class="cls-6" d="M138.68,125.94c-4.25,3.07-1.35,7.7-2.5,11.51,1.21-1.51,2.13-3.15,3.06-4.77.44-.76.48-1.55-.28-2-1.14-.68-1.12.79-1.88,1.2.11-2.91,3.03-4.2,3.08-7.24-.71.63-1.07,1.01-1.49,1.31Z"/><path class="cls-3" d="M183.95,211.16c-6.86-.84-13.15.08-18.14,6.45,1.49-5.38,4.83-10.09,7.93-14.03,9.96-4.23,19.43,1.3,25.38,5.95-3.37-7.06-19.16-12.46-26.98-5.25-2.23,1.8-4.31,4.17-5.69,6.32.26-1.96,1-3.82,1.09-5.71.2-4.52,2.77-7.21,6.31-9.5,6.02-3.88,12.41-6.92,19.16-9.24.04-.22.08-.45.13-.67-8.24,2.39-16.09,5.65-23.61,10.64,1.66-6.68,4.17-12.45,7.97-17.63,2.95-3.18,5.9-6.36,8.86-9.54-3.64,2.46-7.04,5.17-9.48,8.86-3.81,4.41-6.56,9.44-8.06,15.03-1.3,4.86-3.77,8.81-7.57,12.14,2.84-19.27,16-32.2,28.03-45.81-8.25,6.13-15.08,14.41-23.51,28.12,0-.7-.07-1.21.01-1.69,1.87-10.5,3.78-20.99,5.63-31.49.48-2.74,1.07-5.28,4.13-6.34.68-.24,1.09-.92.97-1.75-1.73-.74-1.85,1.76-3.37,1.43.57-4.72,2.93-8.72,5.24-12.72,2.94-5.09,4.58-10.6,5.49-16.37.09-.58.19-1.14-.29-1.47-.53-.35-1.01.11-1.44.42-3.3,2.42-5.96,5.42-8.02,8.95-1.05.91-.48,2.13-.61,3.22-1.77,5.04-1.79,6.31,0,10.23-.04-2.63.56-4.78,1.45-6.86.8-.6.92-2.45,2.61-1.41,1.13,1.36-.05,2.45-.55,3.49-1.41,2.96-3,5.83-4.54,8.79-.6-.37-.65-1.6-1.57-1.36-1.01.26-.56,1.27-.61,1.96-.06.86-.14,1.78.07,2.6,1.53,5.87-.31,11.21-2.81,16.31-2.36,4.81-5.87,9.15-8.06,13.86-4.72,10.13-6.55,21.18-6.17,32.49.13,3.73,1.12,6.89,4.29,9.5,1.72-5.85,2.63-11.69,7.59-15.74-1.11,4.7-2.22,9.18-3.2,13.69-.2.92-.94,2.21.6,2.78,1.26.47,2.58.65,3.52-.7,4.37-6.3,10.51-8.33,17.87-7.41,6.59,1.89,12.77,4.69,18.46,8.54-5.21-4.97-11.35-8.03-18.48-9.06ZM154.84,201.46c-.05-.87-.07-1.7-.07-2.52,0-1.63.11-3.18.33-4.69.11-.75.25-1.5.42-2.24.34-1.49.81-2.97,1.41-4.49.6-1.52,1.34-3.09,2.23-4.75-1.41,6.08-2.81,12.16-4.32,18.69ZM168.26,164.39c-2.13,15.87-5.61,31.44-10.45,47.55-2.41-12.21,3.51-35.22,10.45-47.55Z"/><path class="cls-3" d="M159.65,117.84c-.99,3.77-.52,6.47,1.1,9.02.15-2.77.95-5.59-1.1-9.02Z"/><path class="cls-3" d="M165.82,120.57q-.19-.36,0,0c3.49-3.26,8.03-5.34,11.28-8.88-.18-.2-.35-.41-.53-.61-.78.3-1.55.59-2.33.89q-.29.25,0,0c-.76-.48-.65-1.26-.7-1.99,1-2.44,3.82-3.38,5.42-6.3-1.59.82-2.51,1.29-3.43,1.76-.48-.17-1.11-.03-1.34-.68,3.55-1.34,4.62-4.79,6.33-7.63.82-1.36-.49-.82-1.08-.81-.67-.17-1.46.04-1.95-.65,1.49-1.54,2.75-3.22,3.79-5.14.82-1.51.67-3.38,1.33-4.49,1.1-1.86,1.95-3.71,2.72-5.71,1.21-3.18.22-7.2,3.84-9.56,1.19-.77,2.98-2.79,1.65-4.01-1.53-1.39-2.38,1.53-3.75,1.94-2.22.66-1.43,5.97-5.53,3.5-.02,0-.19.15-.2.23-.08,2.35-2.57,2.95-3.46,4.75-.51,1.02.24,3.79-2.72,2.31-.64-.32-.94.91-.98,1.71-.04,1.03.57,2.07-.31,3.1-2.34,2.76-3.91,5.82-2.9,9.74-1.16-1.63-1.89-1.95-2.78-.09-1.58,3.3-1.41,7.05-2.78,10.43-.28.7-.06,2.2,1.03,3.34,1.46,1.54.34,3.72-.21,5.5-.48,1.54-1.36.35-2.22.04-.89-.32-1.26.82-1.39,1.45-.32,1.6-.24,3.2.36,4.79.49,1.3.99,2.67.66,4.12-1.09,4.78-2.19,9.55-3.41,14.89-1.07-2.31-1.54-4.14-1.14-6.07.43-2.04-.7-3.46-1.48-5.59-.73,1.95,1.04,3.52.17,4.3-3.09,2.77-.27,4.72.95,6.46.86,1.23,1.09,2.08.85,3.42-2.05,11.28-4.67,22.71-6.51,34.02-.22,1.34-.79,3.53-1.29,5.81.56-11.44.19-22.89-.48-34.34v-23.37c-.24,2.68-.67,7.5-1.11,12.31-.04,12.43-.02,24.87-.13,37.3-.06,6.91-.36,13.82-1.33,20.68q-.02.27,0,0c-.6,0-1.21,0-1.81,0-.89-2.18-1.78-4.36-2.67-6.55-1.12-4.27-.44-8.65-.78-12.97.49-4.23-.72-8.32-1.13-12.5,0,6.55,0,13.09,0,19.64-.09.07-.16.16-.26.19-.07.02-.21-.06-.23-.12-.51-1.86-1.19-3.69-1.48-5.58-2.79-17.66-4.55-35.48-8-53.05.26-2.76,2.31-2.01,3.97-2.01.06.2.13.4.2.6-.53,1.16-1.15,2.29-1.55,3.49-.25.75-.46,1.91,1,1.65,2.1-.39,3.32-3.46,2.37-5.73-1.18-2.15-2.74-4.27-.01-6.46.3-.24.46-1.13.26-1.4-.5-.67-1.23-.25-1.66.19-1.34,1.38-2.59,2.84-3.88,4.26-.2,0-.39.01-.58.06-.65-2.03.51-3.23,1.97-4.29,3.29-2.39,4.97-5.61,5.08-9.85-2.28.47-3.25,2.23-4.53,3.59-.22-2.14,1.6-3.45,2.22-5.27.45-1.31.11-1.87-.86-2.45.47-1.25.95-2.5,1.41-3.76.38-1.06.95-2.19-.67-2.69,0-.03,0-.06-.01-.09,0,0-.08.06-.08.06-2.13-1.67-3.37.77-5.63,1.2,2.83-5.34.41-10.16-.72-15.1-.45-1.97-.98-.4-1.5-.06-.49.12-1.08.54-1.35-.24-.49-1.41-.8-2.82-.74-4.38.09-2.76-.77-3.44-3.17-3.21-.54.05-.74-1.12-1.59-.78-.38.88.17,1.95-.64,2.89-.8-.29-1.65-.61-2.64-.97-.07,4.13,3.71,6.01,4.72,9.22-.96,1.04-2-.9-3.15.34,1.14,1.2,2.28,2.4,3.43,3.61-.87.98-1.74-1.2-2.63.33,1.82,1.97,2.23,4.96,4.53,6.71.56.42,1.36,1.04,2.01.5.6-.49.55-1.35,0-2.03.48-.8.93-.81,1.17.12.32,1.2-.22,2.53.51,3.69-2.77.57-5.2-1.3-8.24-1.32,1.22,1.92,3.2,1.85,4.51,2.87-.5,1.15-2.54-1.1-2.54,1.15-.21.66.45.89.66,1.34.58,1.14-2.33,1.18-.83,2.61.66,1.73,1.92,3.05,3.05,4.46-.56.27-1.12.54-1.68.81-1.2-.1-1.85.27-.76,1.33,1.06,1.03,2.32,1.86,3.49,2.78-1.02,1.09-1.67-1.07-2.83.16,3.5,2.2,4.86,5.94,6.74,9.33.02.9.03,1.8.05,2.7-.24.31-.1,1.27-.95.53-.66-.58-.57-1.91-1.94-1.92-.15,1.58.52,2.97,1.66,3.61,2.17,1.22,2.3,3.12,2.59,5.19,1.6,11.38,3.37,22.74,4.88,34.13.41,3.07,1.37,6.17.67,9.86-2.27-4.5-6.85-7.14-6.73-12.43-.12.86-.25,1.71-.46,3.2-1.89-2.02-4.3-3.4-4.68-5.2-1.43-6.73-3.78-13.42-2.67-20.49.25-1.6.82-3.15.27-4.78-.02-.74-.03-1.48-.06-2.22-.17-3.9-1.51-7.48-2.94-11.04-.81-1.04-1.4-2.15-1.47-3.51-.03-.59-.31-1.03-1.04-.81-2.11.63-3.02,2.36-2.9,4.87.07,1.53,2.48,2.98.21,4.6,2.15,3.47.86,7.8,3.07,11.38,1.61,2.61,3.32,5.35,3.91,8.47.99,5.27,1.78,10.57,2.77,15.84,1.66,8.93,3.26,17.88,5.17,26.76,1.26,5.88,3.02,11.65,4.56,17.47-7.24-10.75-12.31-22.46-16.49-34.6-.4-1.34-.58-2.78-2.06-4.39.2,2.21.44,3.72,1.41,5.06.56,1.86,1.19,3.7,1.67,5.58,2.04,7.96,7.46,14.55,9.41,22.54-.01-.02-.02-.04-.04-.06-3.54-4.08-8.59-6.73-11.99-8.19-1.37-1.13-2.9-1.89-5.18-2.46,1.71,1.57,3.22,2.26,4.75,2.92,3.38,2.26,9.66,7.53,13.23,9.99,3.47,3.25,5.28,7.53,7.35,11.66-7.75-3.24-18.32-4.94-25.01-4.13,6.64.68,17.56,2.53,25.49,5.05.17.32.33.64.5.96.27.49.6,2.01,1.13,2.25.94.45,1.84.41,2.58.35,1.26-1.17,1-2.31.67-3.67-2.7-11.12-5.37-22.24-7.86-33.41-.86-3.89-1.6-7.86-1.49-12.34,5.5,7.49,6.95,10.23,7.61,15.65,1.34,10.98,4.04,21.71,5.88,32.59.17.99-.14,2.66,1.2,2.63,1.57-.04,1.74-1.63,1.68-3.02-.35-7.91.23-15.76,1.15-23.62.25-2.17.46-4.34.63-6.51,1.47-7.03,4.13-17.29,5.29-23.85,2.52-14.25,4.98-28.52,9.16-42.41ZM139.32,206.33c.45,2,.69,4.04,1.03,6.07-8.47-15.45-10.03-32.89-13.87-50.21,3.3,2.03,5.59,4.26,5.81,7.9.76,12.39,4.3,24.24,7.03,36.24Z"/></g></svg>