<svg width="735" height="735" viewBox="0 0 735 735" fill="none" xmlns="http://www.w3.org/2000/svg">
<g clip-path="url(#clip0_68_2)">
<rect width="735" height="735" fill="white"/>
<path d="M735 0H0V735H735V0Z" fill="url(#paint0_linear_68_2)"/>
<path d="M517.652 371.085C493.586 392.081 471.055 409.7 466.512 446.842C459.268 505.717 481.246 600.998 494.384 660.61C496.226 669.021 507.402 679.334 495.185 686.456C483.09 681.913 477.872 692.902 476.767 693.086C474.434 693.515 431.582 692.84 429.188 692.349C427.101 691.919 399.288 677.431 398.981 675.773C397.998 670.678 402.666 663.679 402.236 657.97C401.806 652.26 396.157 647.533 396.28 642.499C396.403 636.666 404.629 632.369 404.997 624.327C405.365 616.285 399.351 605.357 399.289 596.639C398.921 526.406 415.803 439.353 329.609 409.455C284.547 393.861 231.751 387.108 188.224 367.34C171.71 359.85 173.859 351.562 170.052 348.799C165.202 345.3 158.324 350.518 152.369 348.308C139.047 343.458 122.902 322.462 114.737 318.533C109.764 316.138 104.24 317.243 97.9167 313.928C60.8973 294.221 14.8503 234.855 16.6921 192.74C16.9377 186.601 10.6149 179.418 18.8414 176.594C30.8743 172.419 33.6982 187.952 41.7405 195.81C58.4392 212.079 87.4158 217.482 110.315 216.254C127.689 215.333 139.663 208.518 162.378 209.746C214.746 212.57 266.253 217.543 318.314 222.024C339.555 223.866 360.428 220.797 381.915 227.673C417.829 197.713 462.092 180.524 503.47 159.528C533.798 144.18 558.048 127.91 591.445 119.07C635.955 107.282 664.013 118.395 680.65 67.3167C683.842 57.4939 678.378 48.9602 691.393 41.7773C696.182 47.364 704.284 52.6439 707.845 58.8445C740.996 117.535 702.076 182.242 665.302 229.576C623.31 283.601 568.362 326.636 517.652 370.9V371.085Z" fill="#004E43"/>
</g>
<defs>
<linearGradient id="paint0_linear_68_2" x1="367.498" y1="735" x2="367.498" y2="0" gradientUnits="userSpaceOnUse">
<stop stop-color="#2D8FEF"/>
<stop offset="1" stop-color="#8DCAF9"/>
</linearGradient>
<clipPath id="clip0_68_2">
<rect width="735" height="735" fill="white"/>
</clipPath>
</defs>
</svg>
