<?xml version="1.0" encoding="UTF-8"?><svg id="Layer_2" xmlns="http://www.w3.org/2000/svg" viewBox="0 0 400 60"><defs><style>.cls-1{fill:#243e39;}.cls-2{fill:#1c302b;}</style></defs><g id="Layer_1-2"><path class="cls-1" d="M41.21,23.99c-1.62,1.18-.51,2.96-.95,4.42.46-.58.81-1.21,1.17-1.84.17-.29.18-.6-.11-.77-.44-.26-.43.3-.71.46.04-1.12,1.15-1.61,1.17-2.78-.27.24-.41.39-.57.51Z"/><path class="cls-1" d="M49.19,20.87c-.38,1.45-.2,2.49.42,3.47.06-1.07.36-2.15-.42-3.47Z"/><path class="cls-1" d="M10.85,10.88s-.04.04-.04.04c.02,0,.03,0,.04,0,0-.01,0-.03,0-.04Z"/><path class="cls-1" d="M217.29,18.72l-.04.04s.04,0,.06,0c0-.01-.01-.03-.02-.04Z"/><path class="cls-2" d="M397.86,46.21c-.29,2.42-.59,4.83-.88,7.25-.44-3.31-.13-6.5,1.22-9.56.22-.51.53-1,.46-1.6-1.12,1.74-4.23,9.74-4.33,9.72-.29-3.73-.67-8.78-.96-12.5.13,4.16,0,8.3-.47,12.53-.4-1.92.64-3.84-.41-5.95-.35,1.29,0,2.39-.75,3.26-.4-2.42-.78-4.77-1.12-6.84-.37,2.68.27,5.69-.23,9-.58-1.7-.26-3.17-.59-4.78-.26.5-.4.78-.74,1.42v-3.74c-.07,0-.58,5.58-.75,5.58,0-3.24.08-6.48-.03-9.71-.08-2.47-.82-4.77-2.83-6.53,2.86,4.4,1.8,9.14,1.24,13.85-.35-2.15-.71-4.29-1.06-6.44.38,3.7.3,7.38-.41,11.05.15-3.56-.48-7.1-.12-10.67.32-3.15-.58-5.99-2.34-8.62,1.96,6,2.03,11.92-.52,17.76-.07-.23-.03-.45-.03-.68.02-1.4-.34-1.96-.84-1.28-.25-.49.04-1.14-.57-1.66-.04,2.33-.43,4.5-.79,6.69-.34-2.46.16-4.98-.58-7.76-.08,1.14-.14,1.91-.2,2.68-.06,0-.13,0-.19,0-.05-.68-.09-1.36-.14-2.08-.68,1.43-1.23,2.83-.77,4.43-1.18-3.41-.4-7.01-1.28-10.43.07,2.25,0,4.48-.68,6.66-.74-.52-1.19-1.22-1.67-1.91.19,1.32.81,2.59.3,3.99-.22-1.55-1.22-2.99-.49-4.66-.27-.98-.62-1.92-1.1-2.65-.87.58,1.75,2.36-.98,2.32,1.53.57,1.73,1.87,1.74,3.26.01,2.01.07,4.03-.42,6.18-.59-1.24-.26-2.43-.4-3.59-.45.07-.22.47-.65.93.23-2.12-.59-3.93.33-5.87-1.01.51-1.35,1.2-1.2,2.1-.16.02-.24.04-.24.03-.21-.96-.68-1.93-.36-2.9.2-.58.83.04,1.25-.11-.68-.46-1.51-.79-1.48-1.87q-.22.97-.97,1.05c.72.54,1.14,2.56.67,3.23-.19.27-.43.17-.72.15-1.64-.14-1.32-1.59-1.58-2.52-.42-1.52.3-3.05.33-4.6-.11.79-.6,1.38-.97,2.02-.2.34-.73.48-.72.19.04-1.15-1.09-.99-1.52-1.57.73,1.59.58,3.1-.44,4.7-.47-1.41-.29-2.82-.91-4.04-.01,0-.02,0-.03.01-.02.44-.12.91-.01,1.32.39,1.53.02,2.9-.77,4.3-.18-.43-.34-.81-.5-1.18-.49,1.24-.57,2.57-.75,3.99-2.09-4.12-1.68-6.41,1.53-9.87,0,0,2.09-2.27,2.36-2.83-1.36.65-3.06,2.39-3.34,2.64-1.64,1.83-2.61,4.01-3.32,6.33-.36,1.17-.79,2.33-1.28,3.75-1.43-7.05,2.22-12.01,5.75-16.96-.83.23-1.29,1.12-1.99,1.71-.06.06-.12.12-.18.18-.04.06-.1.11-.14.17-.23.32-.44.67-.67.99-.1.14-.23.26-.34.39-.01.02-.01.03-.03.05-1.44,2.28-2.56,4.75-3.58,7.26-.45-5.34,1.55-10.45,1.48-15.72-2.21,6.85-2.18,14.11-4.06,21.01-.92-4.42.1-8.83-.17-13.24-.98,4.16-1.03,8.5-2.56,12.72-.5-1.61-.22-3.06-.08-4.6-.42.39-.32,1.04-.97,1.19-.18-1.27-.35-2.5-.52-3.72-.28,2.51.56,4.94.26,7.45-.34-.92-.43-1.93-1.16-3.04-.79,2.46.11,4.84-.87,7.03-.23-1.37.35-2.65,0-3.96.04,1.05-.37,1.99-.65,2.98-.18-.57-.22-1.12-.29-1.68-.04-.3.2-.76-.15-.88-1.01-.34-1.28-1.09-1.36-2.03-.02-.31-.16-.61-.25-.91-.2.7-.21,1.39-.27,2.07-.06.69-.18,1.38-.27,2.07-.41-3.09.23-5.98,1.36-8.8.87-2.17,1.84-4.31,1.99-7.02-1.38,3.63-2.64,6.95-3.9,10.28-.67-3.27-.16-6.47-.36-9.66-.06-.99.33-1.93,1.02-2.64.99-1.03,1.41-2.36,1.7-3.72-.89,1.24-1.49,2.69-2.78,3.85-.18-.94.27-1.66-.05-2.57-.62-1.74.04-3.05.79-5.11.02-.06.04-.2.11-.62-.39.54-.77,1.07-1.31,1.82-.28-1.6-.48-2.93-.75-4.25-.44-2.15-.7-2.76-1.49-3.69.98,3.53,2.12,6.89,1.93,10.5-1.64-3.9-4.01-7.24-7.08-10.1,1.42,2.32,2.98,4.54,4.47,6.81,1.23,1.87,2.64,3.71,2.88,6.02.37,3.58.22,7.17-.17,10.78-.89-4.41-.91-8.98-2.7-13.19.13,1.92.6,3.79.63,5.73-.58-.07-.48-.84-1.02-.85.5,1.4,1.33,2.7,1.23,4.37-1.09-1.46-2.15-2.86-4-3.42,4.45,3.55,4.54,8.16,3.26,13.46-.77-3.05-1.51-5.77-3.79-7.59.04,1.13,1.39,2.01,1.01,3.38,0,0,.02-.01.02-.02-.7,2.39-1.36,5.48-1.29,7.99-1.65-5.39-2.05-11.53-1.67-17.19-.96,6.02-2.53,11.9-3.09,17.99-.5-2.68-.98-5.36-1.26-8.09v5.8c-.37-1.44-.35-2.89-.37-4.35-.81,1.85-.63,3.85-1.06,5.75-.66-7.15-1.28-14.29-2.53-21.35-.3-1.69.3-2.79,1.2-3.93.98-1.25,2.04-2.45,3.02-3.71,1.45-1.86,2.88-3.75,3.88-5.92-.55.43-.99.94-1.45,1.43-.53.56-2.15,3.26-2.32,3.3-.12.03-.22-4.21-.55-4.27-.22.87-.1,1.75.02,2.61.1.7-.09,1.41-.51,1.98-1.32,1.8-2.57,3.66-3.67,5.86-.29-1.25-.54-2.3-.78-3.34.16,2.71.94,5.33,1.12,8.05-2.14-4.58-5.99-7.58-9.61-10.81.25.59.59,1.12.98,1.62,1.59,2.04,3.46,3.82,5.26,5.66,3.22,3.32,4.02,5.21,4.14,9.88-2.17-4.48-4.41-6.01-13.55-11.21.83,1.16,2.2,1.43,2.53,2.66,3.73,2.77,7.85,5.08,10.52,9.11.52.78.81,1.69.87,2.62.18,2.8.32,5.6-.17,8.45-.4-1.19-.8-2.38-1.2-3.57-.07.01-.15.03-.22.05v3.26c-.66-1.22-.43-2.55-.65-3.91-.29,1.06.04,2.13-.5,3.08-1.39-1.04-1.62-2.47-1.45-4.05-.47.24-.28.79-.65,1.18-.78-1.85-1.91-3.4-3.34-4.76.69,1.71,1.84,3.27,1.55,5.26-.14.92-.14,1.87-.71,2.78-.06-.54-.12-.99-.2-1.66-.32,1.02.06,1.99-.63,2.76-.69-.94-.39-2.19-1.05-3.35-.37,1.43-.47,2.66-.54,4.31-.45-2.04.09-3.72-.34-5.4-.41.63-.08,1.33-.39,2.16v-1.85c-.77-.15-.97-.57-1.05-1.14-.06-.46-.11-.92-.29-1.38-.24,1.58-.47,3.16-.71,4.75-.54-1.72-.97-3.43-1.48-5.12-.15-.52.34-.73.61-1.02,1.09-1.15,2.19-2.29,3.51-3.64-2.35,1.14-4.06,2.69-5.83,4.31-.27-.49.1-.83.17-1.17.08-.39.34-.74.56-1.18-.98.21-.59,1.32-1.69,1.9,1.09-1.68.28-3.05.28-4.45,0-.64.35-1.22.85-1.6,1.03-.77,2.03-1.57,3.16-2.45-1.64.27-2.63,1.36-3.77,2.19-.56.75-.45,1.68-.64,2.75-1.43-3.86-3.32-7.26-5.07-10.74.66,4.17,3.68,7.9,2.15,12.33-1.35-1.41-1.51-3.43-2.13-5.45-.35.87.19,1.57-.22,2.34-.61-.73-1.16-1.38-1.7-2.03.23.9.72,1.62,1.14,2.37.35.64,1.03,1.1.97,1.97-.19,2.75-.71,5.44-1.17,8.48-.7-1.89-.52-3.62-1.07-5.43-.56,2.16-.12,4.2-.75,6.06-.18-.57-.37-1.18-.65-2.06-.71,2.21-1.08,4.17-1.01,6.23-.38-2.62-.73-5.21-1.74-7.66-.43,1.43.25,3.49-.74,5.95-.29-1.37-.09-4.06-.33-5.19-.86,1.45-1.28,4.93-1.95,6.61-.24-.5-.93-3.4-1.52-3.85.03,1.1.23,2.17-.2,3.23-.28-.57-.41-1.14-.41-1.75,0-1.98,0-3.85-.03-5.82-.02-1.54-.44-3.28,1.99-3.36.25,0,.55-.21.53-.55-.03-.45-.43-.42-.73-.49-.22-.05-.48-.07-.7-.02-1.37.33-1.45-.3-1.16-1.42.16-.62.52-.96.95-1.32,1.33-1.08,2.6-2.22,3.79-3.81-.95.21-1.65.36-2.58.57,2.12-2.98,4.18-5.72,5.9-8.68-.11-.1-.22-.21-.34-.31-1.15,1.33-2.29,2.66-3.49,4.05-.84-1.52-.83-2.98-1.21-4.52-.37,1.46-.27,2.72,0,3.97.17.77.14,1.56-.11,2.3-.7,2.05-1.65,3.96-3.04,5.84-.36-2.76-.49-5.4-1.25-7.89-.56-1.82-.38-3.37.36-5.09,1.26-2.93.78-5.91-.24-8.84.14,3.54.33,7.08-.77,10.67-.56-.75-.35-1.66-.92-2.25-.22.49.45.87.06,1.45-2.4-3.88-5.73-6.8-9.42-9.92.6,1.43,1.32,1.89,1.95,2.64,1.56,1.84,3.16,3.67,5.04,5.18,2.15,1.74,3.26,3.98,3.69,6.56.11.64.06,1.32.22,1.95.65,2.65.95,5.34.97,8.08,0,.88-.28,1.2-1.1.96-.02.01-.04.02-.06.03-.1.41-.58.11-.83.48,1.77.58,2.57,1.77,2.13,3.81-1-1.45-1.9-2.89-3.57-4.12-.01,0-.02-.01-.03-.02-.11-.05-.21-.1-.31-.16-.26-.15-.37-.22-.65-.3-.42-.13-.86-.21-1.3-.3-.18-.01-.36-.03-.54-.03,0,0,0,0,0,0,1.66.93,3.28,1.67,4,3.44,0,0,0,0,0,0-.49.66-.36,1.38-.55,2.12-.34,1.31-.49,2.68-1.22,4.26-.24-1.38-.42-2.39-.65-3.73-.08.87-.13,1.41-.18,1.95-.04,0-.09.02-.13.03-.07-.36-.14-.72-.21-1.08-.08.01-.16.03-.23.04v3.29c-1.04-2.53-.97-5.12-1.64-7.72v5.46c-.35-.64-.12-1.19-.67-1.42,0,1.96.04,3.87-.39,5.78-.42-1.66-.85-3.32-1.27-4.98-.28.98-.34,1.95-.38,2.93-.05.98-.06,1.96-.64,3.25v-5.48c-.06,0-.13-.02-.19-.02-.23.78-.46,1.56-.69,2.35-.39-1.81-1.35-3.72-.55-5.37,1.42-2.92,8.1-8.82,8.48-8.97.8-.58,1.72-1.05,2.26-1.81-1.98-.11-7.4,4.9-8.51,6.46-1.11,1.56-2.35,2.92-3.21,4.86-.44-3.02,1.82-5.05,1.9-7.99-.59.96-.65,1.9-1.53,2.73.26-2.17.43-4.08.72-5.97.28-1.85.68-3.67,1.03-5.51-2.24,4.54-2.77,9.5-3.53,14.63-1.25-2.06-1.37-3.87-.61-5.79.44-1.12.77-2.31.59-3.58-.69,1.64-1.38,3.28-2.14,5.07-.25-.64-.41-1.06-.58-1.48,1,2.65-.86,4.56-1.39,6.86-.71-6.93.89-13.38,3.1-19.84-2.77,4.82-3.66,10.21-4.69,15.56-.84-3.88-1-7.76-.64-11.66.37-3.91,2.18-7.43,2.91-11.51-1.23,1.81-1.46,3.77-2.53,5.82.21-2.8-.37-5.22.49-7.58h.02c-.58-.49-.49-1.17-.49-1.82,0-2.59.05-5.18-.04-7.76-.06-1.94-.47-3.93-1.29-5.97.78,6.4.92,12.68.96,18.86-.96-3.23-1.26-6.6-2.33-9.89-.04,4.76,1.68,9.14,2.31,13.71-1-2.18-2.46-3.84-4.53-4.94,1.08,1.52,2.37,2.87,3.37,4.44.67,1.05,1.22,2.12.96,3.42-.38,1.86-.25,3.75-.27,5.63-.02,1.49,0,2.98,0,4.47-.04,0-.08,0-.12-.01-.47-2.93-.94-5.85-1.46-9.12-.13,1.94.27,3.5.41,5.27-1.68-2.72-2.66-5.6-4.05-8.28,1,3.37,1.7,6.86,3.55,9.87,1.84,3,1.11,6.3,1.55,9.48-.65-3.04-2.3-5.53-4.12-7.92-.71-.94-1.37-1.9-1.76-3.02-.11-.31-.09-.84-.26-.91-1.88-.73-2.03-2.42-2.27-4.09-.1.24-.09.45-.13.66-.08.43.36,1.18-.46,1.17-.79,0-.68-.69-.63-1.28.1-1.09-.09-2.14-.47-3.2-.26,1.04.22,2.08-.09,3.06-.47.02-.4-.65-.9-.53,1.61,4.04,2.51,8.27,3.97,12.32.21.57.47,1.25.44,1.72-.54,8.65-1.02,8.63-1.19,9.25-.14-1.44-.92-2.7-1.31-4.07-.3-.58-.42-1.2-.41-1.86,0-.37.03-.74.04-1.11,0-.33-.04-.65.03-.98.07-.58.37-1.42.48-1.64.33-.66,1.03-.29,1.6-.46-.53-.5-1.09-.43-1.48-.12-1.42,1.12-.87,2.84-1.44,4.33-.83-.75-.34-1.79-.86-2.64-.59.86-.13,1.91-1.05,2.79-1.11-5.18.36-10.31-1-15.34.27,2.72.2,5.44-.15,8.13-.36,2.68-.8,5.25-1.74,8.18-.71-4.8-1.06-9.11.3-13.51-.12,0-.25.35-.83,1.85-.61,1.96-.77,2.06-1.38,4.02-.54-9.16,1.03-18.03,2.83-26.89-.97,2.2-1.56,4.51-2.18,6.81-.61,2.24-.55,4.62-1.37,6.82.26,2.02-.18,4.02-.24,6.03-.11,3.82.31,7.65-.17,11.74-.53-1.66-.47-3.12-.47-4.55,0-3.29-.11-6.56-.87-9.77-.42-1.78-.16-3.54.07-5.31.47-.19.51.5.91.44-1.71-2.08.46-3.7.75-5.63-.77.47-.73,1.37-1.5,1.98.74-4.88,1.36-9.58.75-14.65.05,5.22-.39,10.09-1.26,14.92-.25-1.13-.06-2.31-.68-3.35-.21.38.09.74.07,1.09-.06,1.14.53,2.34-.3,3.41-.63-.34-.73-1.16-1.31-1.54,2.02,5.63,2.22,11.53,2.55,17.4-.85-5.52-1.51-11.07-2.73-16.54-.06-.27-.03-.56-.04-.84-.42-1.01-.84-2.03-1.26-3.04.24,1.78.66,3.51.99,5.25.42,2.21.72,4.45,1.09,6.68.24,1.46.44,2.92.61,4.39.19,1.55.41,3.14.14,4.98-.9-2.25-1.27-4.33-1.74-6.38-.45-1.99-.78-4.01-1.69-5.85,1,6.7,2.53,13.24,2.01,20.09-.93-1.88-.84-3.81-.86-5.84-.5.42-.27,1.08-.61,1.59-1.03-2.07-.59-4.28-.78-6.76-.5,1.75-.62,3.18-.78,4.74-.87-1.72-1.52-3.32-1.71-5.14-.17-1.7-.53-3.42-1.47-4.93,1.82,6.52.63,12.89-.2,19.36-1.14-3.58-1.52-7.15-1.75-10.86-.23-3.7-.41-7.4-.52-11.11-.36,4.76-.29,9.5.28,14.24-.82-1.95-1.51-3.93-2.1-5.94.43-2.94.98-5.88,1.52-8.81-.82,2.05-1.54,4.12-2.21,6.2-.48-2.01-.87-4.06-1.16-6.15-.56.5-.38,1.04-.38,1.53.03,2.27.39,4.47.91,6.64-.44,1.47-.86,2.95-1.24,4.43-.16-1.19-.46-2.37-.64-3.56-.25-1.63-.97-4.89-1.13-4.88.13,4.53.94,9.06.27,13.57-1.69-1.44-1.52-3.48-1.22-5.47-1.21.46-.34,1.58-1.08,2.18-.39-.79-1.3-.88-1.85-1.42-.01-.06-.03-.11-.04-.16,0,.04,0,.08,0,.12-.07-.08-.14-.16-.2-.26-.17-.29-.28-.7-.68-.43-.39.27-.06.56.14.82.25.31.5.63.75.95.09,2.95.45,5.9-.07,9.12-.78-1.97-.77-3.82-1.64-5.38-.66.26-.1,1.13-.97,1.27-.13-3.35.67-6.54,1.59-10.25-1.28,1.85-1.64,3.47-2.22,5.28-1.32-6.94-.25-13.49.53-20.08-1.94,5.61-3,11.4-3.9,17.22-.05-.14-.1-.27-.17-.41,0,.5,0,1.02,0,1.53-.08.53-.16,1.06-.24,1.59-.11.06-.28.05-.54-.09-.84-.43-1.05.76-1.75.64-.06.63.31,1.04.69,1.45.02.02.04.04.07.06-.34,1.34-.5,2.71-.66,4.08-.02,0-.03.01-.05.02-.37.07-.65.15-.88.23-.07-1.09-.17-2.19-.27-3.28-.41-4.31.26-8.58.76-12.84.26-2.27.21-5.12-.14-7.84.45-.26.86-.57,1.23-.96.31-.34,1.16-.37.84-1.04-.32-.67-.95-1.38-1.77-1.04-.32.13-.58.18-.79.18-.32-1.41-.72-2.69-1.23-3.71.2,1.09.33,2.17.45,3.25-.19-.32-.3-.78-.43-1.25-.22,1.12-.44,2.03-1.29,2.72-.63.51-.69,1.34-.2,2.05.29.43.53.96.22,1.29-.95,1.03-.67,2.06-.69,3.35-.03,2.66-1.01,5.32-2.61,7.6-.24.34-.5.98-1.06.47-.72-.66-1.48-.44-2.22-.21v-8.53c-.5,1.14-.45,2.53-.28,3.85.38,2.95-1.05,5.84.36,8.92.84,1.83-.24,3.62-1.01,5.45-.09-.91-.05-1.83.16-2.83-.72.91-1.05,1.88-1.22,2.87-.19-.97-.27-1.95-.25-2.95-.21,1.22-.34,2.95-.36,3.39-.04.97.26,1.96-.15,2.92-.46.12-.16-.51-.55-.5-.01.1-.03.2-.04.3-.31-1.08-.52-2.14-.76-3.16.13,0,.26.03.39.05-.07-.25-.28-.39-.5-.52-.15-.63-.33-1.24-.56-1.84.19-.37.39-.72.3-1.08-.29-1.12.25-1.6,1.09-2.12,1.3-.8,1.67-2.79.87-3.97-.23-.33-.42-.66-.87-.32-.95.71-.88-.17-.79-.61.14-.68.08-1.39-.49-1.62-1.23-.49-1.32-1.39-1.26-2.49-.26.63-.51,1.25-.77,1.88-.08-.02-.15-.05-.23-.07v-3.46c-.28,1.06-.45,2.12-.54,3.18-.09,1.05-.81,1.78-1.33,2.57-.4.61-1.79.2-2.06-.52-.18-.5-.29-1.03-.43-1.55.14,1.37-.13,2.86,1.04,3.94.17.16.33.41.16.62-.25.31-.62.25-.88.03-.28-.25-.51-.4-.77-.35.07-2.11.22-4.2.46-6.29.04.03.08.07.15.1-.08-1.07,1.23-2.12.27-2.85,0-.02-.01-.03-.02-.05.38-2.38.89-4.74,1.54-7.08-.99,1.83-1.7,3.71-2.26,5.62-.11-.69-.05-1.4-.18-2.09-.26.75.17,1.65-.56,2.42q.09-1.7-1.16-2.05c-1.68-.47-1.73-.82-.47-2.1.65-.67.81-1.86.33-2.66-.32-.55-.22-1.13-.42-1.84-.76,1.43-2.72,1.39-3.03,3.32.02-2.13-2.42-1.14-2.83-2.63.03,2.02.22,3.97.76,5.89.21.73.85,1.25,1.61,1.26.49,0,.99,0,1.71,0-.87,1.09.13,2.06-.12,3.06-1.64-.5-1.68-.51-2.05.11-.17.28,0,.87-.59.75-.42-.08-.51-.5-.61-.86-.05-.2-.04-.46-.35-.43.14,1.14-.61,2.14-.49,3.35-.25-.13-.52-.21-.72-.34.27-1.76.69-3.51,1.12-5.25-.97,1.5-1.65,3.07-2.15,4.69-.62.11-1.1,1.04-1.77.83-.18-.05-.44.09-.63.21-.07.05-.06.26-.06.4,0,.41.97,1.72,1.61,2.37-.14.98-.23,1.96-.29,2.96,0,.02,0,.03,0,.05-.15.44-.29.89-.43,1.34-.25-.63-.5-1.26-.76-1.88.24.8.43,1.6.59,2.41-.81,2.72-1.35,5.51-1.76,8.4-.41-.61-.79-1.06-1.19-1.42-.35-3.21-.48-6.37-.12-9.57.53-4.74.79-9.49-.45-14.19.37,6.16-.47,12.24-1.41,18.3.54,3.53-.28,7-.43,10.5-.48-3.53.29-7,.43-10.51-1.88,3.43-2.05,7.33-3.13,11.25-1.27-3.35-1.13-6.69-1.98-10.11-.85,4.29-.31,8.33-.49,12.36-1.72-6.84-.65-13.8-.84-20.71-.94,4.96-2.23,9.84-2.81,15.49-.3-1.76-.44-2.87-.69-3.96-.97-4.16-.81-8.53-2.37-12.59-.17,6.24,1.28,12.64-2.12,18.46-.65-2.72-2.63-5.15-2.83-8.23-.49,3.87-.97,7.74-1.46,11.62-.74-5.3-.21-10.42,2.03-15.31.37-.82.87-1.6.76-2.56-1.86,2.8-6.41,13.75-6.72,14.74-.16-.03-1.57-13.23-2.05-19.2.21,6.67,0,13.3-.78,20.08-.66-3.07,1.06-6.15-.68-9.54-.59,2.06,0,3.82-1.24,5.23-.66-3.87-1.3-7.64-1.86-10.95-.61,4.3.44,9.12-.39,14.41-.97-2.72-.44-5.09-.98-7.66-.43.8-.67,1.24-1.22,2.27v-6c-.12,0-1.25,8.94-1.25,8.94,0-5.19.14-10.38-.04-15.56-.14-3.96-1.35-7.64-4.69-10.46,4.74,7.05,2.99,14.65,2.06,22.19-.59-3.44-1.18-6.88-1.76-10.32.63,5.93.5,11.82-.68,17.7.25-5.7-.8-11.38-.2-17.09.53-5.05-.97-9.6-3.88-13.81,3.25,9.61,2.9,20.01-1.34,29.35-.11-.37,0-2.53-1.89-6.72-.07,3.73-.71,7.22-1.31,10.71-.57-3.95.27-7.97-.97-12.44-.14,1.83-.45,10.34-.55,10.34-.44-2.76-.94-1.69-.32-9.37-1.13,2.28-2.04,4.53-1.28,7.09-1.96-5.46-.66-11.22-2.12-16.71.12,3.61.37,11.9-.78,15.38-1.22-.83-2.33-6.68-3.13-7.77.31,2.11,1.34,4.15.49,6.39-.37-2.48-1.83-10.55-2.63-11.71.57,3.7,1.25,7.17,1.26,8.93.02,3.23.12,6.46-.69,9.9-.98-1.98-.43-3.89-.67-5.75-.07.01-.13.03-.18.05-.05,2.5-.13,5.01-.25,7.51-.45-2.16-1.4-4.2-1.86-6.37-.12,2.91.58,5.78-.05,9.24-.99-3.44-1.41-6.45-2.68-9.62-.33,1.75-.59,3.11-.93,4.91-.72-3.07-.27-5.73-.36-9.03-.64,2.11-1.07,3.56-1.51,5.01-1.27-8.47.33-16.69,1.84-24.94-2.72,6.82-4.51,13.89-6.04,20.8-1.65-2.34-3.08-4.89-3.73-7.8,0,3.36.54,6.67-.05,10.32-.78-1.97-.77-3.82-1.64-5.38-.66.26-.1,1.13-.97,1.27-.13-3.35.67-6.54,1.59-10.25-1.28,1.85-1.64,3.47-2.22,5.28-1.32-6.94-.25-13.49.53-20.08-3.12,9.01-3.95,18.47-5.55,27.78-.53-2.38-.09-4.72.09-7.06-1.2,3.38-.88,7-1.98,10.4.24-2.71-.01-5.38-.27-8.07-.41-4.31.26-8.58.76-12.84.51-4.37-.14-10.9-1.86-14.41,2.04,11.39-.64,21.65-3.31,32.52-.37-2.39-.44-4.25-1.67-6.45v8.89c-1.14-4.54-.7-9.17-1.26-13.76-.51,3.54-1.03,7.08-1.61,11.08-.89-2.2-1.2-4-.74-6.19-1.9,2.39-1.04,5.11-1.92,7.87-1.26-3.01-1.22-5.85-2.52-8.36-.37.66.18,1.45-.69,2.22v-6.53c-1.01,3.11-.6,6.45-1.93,9.91-.54-2.2-.31-4.05-1.1-5.91-.24,2.67.07,5.23-.9,7.8-.36-1.47-.87-3.61-1.27-5.3-.43-1.79-.62-3.63-.56-5.47.18-5.7.74-12,2.37-17.77-4.77,8.8-3.43,18.84-6.09,28.57-.88-2.18-1.39-4-2.56-5.5.69,2.99,1.65,5.94,1.18,9.3-.33-.58-.59-1.03-.98-1.72-.31,1.89-.56,3.48-.82,5.08-.48-4.33-1.5-7.39-1.93-11.75-.16-1.63-.49-6.47-.57-8.57-.12-3.37.63-6.63,1.44-9.89-2.27,3.52-3.05,7.42-3.29,11.47,0,.02,0,.03,0,.05-1.55,4.47-2.28,9.11-2.84,14.05-.8-5.05-1.39-9.86-.84-14.77.53-4.74.79-9.49-.45-14.19.37,6.16-.47,12.24-1.41,18.3.54,3.53-.28,7-.43,10.5-.18-1.34-.18-2.67-.11-3.99.09-.03.17-.07.26-.1.02-.09.03-.17.05-.26-.1.03-.19.06-.29.09.13-2.08.44-4.16.52-6.25-1.16,2.11-1.67,4.41-2.14,6.77-.65.23-1.3.48-1.95.74-.3-1.8-.45-3.6-.82-5.43.7-.76,1.4-1.52,2.1-2.28-.79.54-1.53,1.12-2.21,1.77-.03-.14-.06-.29-.09-.43-.04.21-.07.42-.1.63-.44.44-.85.91-1.2,1.44-.07.08-.12.16-.19.24,0-.59.01-1.18.02-1.77,1.55-1.93,3.24-3.77,4.88-5.64-1.72,1.29-3.28,2.84-4.86,4.84.07-2.7.18-5.4.11-8.09-.68,3.58-1.53,7.11-2.18,10.92-.36.54-.73,1.1-1.11,1.69-.07-.38-.14-.74-.22-1.09-.07-.31-.13-.62-.19-.93.55-3.1,1.1-6.19,1.64-9.29.18-1.05.41-2.03,1.57-2.44.26-.09.42-.35.37-.67-.66-.28-.7.68-1.28.55.22-1.82,1.11-3.35,1.99-4.89,1.12-1.96,1.74-4.08,2.09-6.3.03-.22.07-.44-.11-.56-.2-.14-.38.04-.55.16-1.26.93-2.26,2.08-3.05,3.44-.4.35-.18.82-.23,1.24-.67,1.94-.68,2.43,0,3.93-.02-1.01.21-1.84.55-2.64.3-.23.35-.94.99-.54.43.52-.02.94-.21,1.34-.54,1.14-1.14,2.24-1.73,3.38-.23-.14-.25-.62-.6-.52-.38.1-.21.49-.23.75-.02.33-.05.68.03,1,.58,2.26-.12,4.31-1.07,6.27-.25.51-.53,1-.82,1.48-.31-2.49-.63-4.97-1.54-7.35-.09,3.2.25,6.44.14,9.63-.31.52-.6,1.04-.85,1.57-.87,1.89-1.48,3.86-1.86,5.88-.33-.86-.74-1.71-1.13-2.58.57-2.68,1.5-6.34,1.92-8.73.96-5.48,1.89-10.96,3.49-16.31q-.07-.14,0,0c1.33-1.25,3.05-2.05,4.29-3.41-.07-.08-.13-.16-.2-.24-.29.11-.59.23-.88.34q-.11.1,0,0c-.29-.18-.25-.49-.27-.77.38-.94,1.45-1.3,2.06-2.42-.61.31-.96.5-1.31.68-.18-.07-.42-.01-.51-.26,1.35-.51,1.76-1.84,2.41-2.93.31-.52-.19-.32-.41-.31-.25-.07-.56.01-.74-.25.57-.59,1.05-1.24,1.44-1.97.31-.58.25-1.3.5-1.73.42-.71.74-1.42,1.03-2.2.46-1.22.08-2.77,1.46-3.68.45-.3,1.13-1.07.63-1.54-.58-.54-.9.59-1.42.75-.85.25-.55,2.3-2.1,1.35,0,0-.07.06-.08.09-.03.9-.98,1.14-1.32,1.83-.19.39.09,1.46-1.03.89-.24-.12-.36.35-.37.66-.02.4.22.8-.12,1.19-.89,1.06-1.49,2.24-1.1,3.74-.44-.63-.72-.75-1.06-.03-.6,1.27-.54,2.71-1.06,4.01-.11.27-.02.85.39,1.28.56.59.13,1.43-.08,2.11-.18.59-.52.14-.85.02-.34-.12-.48.31-.53.56-.12.61-.09,1.23.14,1.84.19.5.38,1.02.25,1.58-.41,1.84-.83,3.67-1.3,5.72-.41-.89-.59-1.59-.43-2.33.16-.78-.27-1.33-.56-2.15-.28.75.4,1.35.06,1.65-1.17,1.06-.1,1.82.36,2.48.33.47.41.8.32,1.32-.78,4.34-1.78,8.73-2.48,13.08-.08.52-.3,1.36-.49,2.23.21-4.4.07-8.8-.18-13.2v-8.99c-.09,1.03-.26,2.88-.42,4.73,0,3.27-.01,6.55-.03,9.82-.98,1.66-1.76,3.42-2.52,5.18,0-.07,0-.14-.01-.21.19-1.62-.27-3.2-.43-4.81v6.04c-.13.29-.25.58-.38.87-.15-.49-.29-.98-.37-1.48-1.06-6.79-1.73-13.64-3.04-20.4.1-1.06.88-.77,1.51-.77.02.08.05.15.08.23-.2.45-.44.88-.59,1.34-.09.29-.18.74.38.63.8-.15,1.26-1.33.9-2.2-.45-.82-1.04-1.64,0-2.48.11-.09.18-.44.1-.54-.19-.26-.47-.1-.63.07-.51.53-.99,1.09-1.48,1.64-.08,0-.15,0-.22.02-.25-.78.19-1.24.75-1.65,1.25-.92,1.89-2.16,1.93-3.79-.87.18-1.24.86-1.72,1.38-.08-.82.61-1.33.84-2.03.17-.5.04-.72-.33-.94.18-.48.36-.96.54-1.45.14-.41.36-.84-.26-1.04,0-.01,0-.02,0-.04l-.03.02c-.81-.64-1.28.3-2.14.46,1.08-2.05.15-3.91-.27-5.81-.17-.76-.37-.16-.57-.02-.19.05-.41.21-.51-.09-.19-.54-.3-1.09-.28-1.68.03-1.06-.29-1.32-1.21-1.23-.21.02-.28-.43-.6-.3-.15.34.07.75-.25,1.11-.3-.11-.63-.23-1-.37-.03,1.59,1.41,2.31,1.8,3.54-.36.4-.76-.35-1.2.13.43.46.87.92,1.31,1.39-.33.38-.66-.46-1,.13.69.76.85,1.91,1.72,2.58.21.16.52.4.76.19.23-.19.21-.52,0-.78.18-.31.35-.31.45.05.12.46-.09.97.19,1.42-1.05.22-1.98-.5-3.13-.51.46.74,1.22.71,1.72,1.1-.19.44-.97-.42-.97.44-.08.25.17.34.25.51.22.44-.89.45-.31,1,.25.67.73,1.17,1.16,1.72-.21.1-.43.21-.64.31-.46-.04-.7.1-.29.51.4.4.88.71,1.33,1.07-.39.42-.64-.41-1.07.06,1.33.85,1.85,2.28,2.56,3.59l.02,1.04c-.09.12-.04.49-.36.2-.25-.22-.22-.73-.74-.74-.06.61.2,1.14.63,1.39.83.47.87,1.2.98,2,.61,4.38,1.28,8.74,1.86,13.12.15,1.18.52,2.37.25,3.79-.86-1.73-2.61-2.75-2.56-4.78-.05.33-.09.66-.17,1.23-.1-.11-.21-.21-.31-.31-.18-2.19-.35-4.38-.53-6.57.06,2.05.07,4.09.05,6.14-.48-.42-.9-.81-.99-1.26-.54-2.59-1.44-5.16-1.02-7.88.1-.62.31-1.21.1-1.84,0-.28,0-.57-.02-.85-.06-1.5-.57-2.88-1.12-4.24-.31-.4-.53-.83-.56-1.35-.01-.23-.12-.4-.4-.31-.8.24-1.15.91-1.1,1.87.03.59.94,1.15.08,1.77.82,1.33.33,3,1.17,4.38.61,1,1.26,2.06,1.49,3.26.38,2.03.68,4.07,1.05,6.09.38,2.04.75,4.08,1.14,6.11-.1,1.88-.24,3.78-.41,5.68-.11-.21-.21-.43-.31-.65.19-2.05.54-4.15-.6-6.38-.41,1.42-.26,2.7-.54,3.82-.62-1.48-1.19-3-1.72-4.52-.3-1.75-.58-3.44-.85-5.02-.53,3.73.19,7.86-.15,12.36-.23-.17-.49-.31-.78-.43-.19-1.75-.07-3.41-.43-5.17-.43.8-.67,1.24-1.22,2.27v-6c-.12,0-1.25,8.94-1.25,8.94,0-5.19.14-10.38-.04-15.56-.14-3.96-1.35-7.64-4.69-10.46,4.74,7.05,2.99,14.65,2.06,22.19-.59-3.44-1.18-6.88-1.76-10.32.63,5.93.5,11.82-.68,17.7.25-5.7-.8-11.38-.2-17.09.53-5.05-.97-9.6-3.88-13.81,3.25,9.61,3.37,19.1-.86,28.45-.11-.37-.05-.73-.04-1.09,0-.44-.01-.82-.05-1.15-.06.17-.12.34-.19.5.04-2.38.34-4.73,1.03-7.07-.15-.01-1.59,3.86-2.31,6.32-1.36-5.61-1.36-10.77-.81-16.32-1.37,3.44-.5,6.89-1.96,9.97-.06-.72-.12-1.4-.18-2.08-.26,3.1.75,6.22-.55,9.28-.27-.97-.07-2.09-.68-3.21-.37,2.39,1,4.47.45,6.7-.89-4.36-3.54-17.38-3.77-17.39.09,4.38-.38,8.82-.86,13.37-1.29-4.87-1.98-15.04-2.04-15.12-.18,1.23-.29,2.47-.29,3.72,0,.17-.06.33-.14.77-.87-1.64-.87-3.32-1.54-5.01-.11,4.62,2.18,8.86.85,13.75-.92-2.74-1.71-5.07-2.62-7.75.14,4.27,2.15,7.99,1.14,12.17-1.42-3.76-1.3-7.67-2.62-11.63-.64,3.17.44,6.12-.57,9.27-.13-.55-.24-1.1-.35-1.64-.1.81-.58,4.37-.88,5.12v8.64h400v-8.65c-.39-1.7-2.02-3.21-2.14-5.14ZM56.58,52.88c-.11.02-.21.05-.32.07-.2-1-.35-2-.45-3,.25-.15.5-.3.75-.44.02,1.13.04,2.25.02,3.36ZM56.57,53.31c0,.31,0,.61-.02.92-.07-.29-.14-.59-.2-.88.07-.01.15-.03.22-.03ZM59.93,47.89c-.27,1.35-.53,2.72-.91,4.09-.42-1.1-.67-2.19-.87-3.29.59-.28,1.18-.55,1.79-.8ZM55.97,44.2c.28-.3.56-.61.83-.91-.26,1.91-.28,3.78-.26,5.63-.27.13-.54.27-.81.41-.13-1.49-.19-2.98-.19-4.47.14-.22.27-.44.42-.65ZM53.36,45.43c-.18,1.16-.35,2.35-.47,3.57-.15-.88-.26-1.59-.36-2.23.27-.46.55-.9.84-1.35ZM52.46,38.77c-.19,1.41-.41,2.82-.65,4.23-.12-.75-.22-1.51-.32-2.26.31-.71.64-1.37.97-1.97ZM47.61,49.39c.13-.57.31-1.14.54-1.73.23-.59.51-1.19.85-1.83-.35,1.53-.7,3.07-1.06,4.65-.08.14-.14.29-.23.43-.06-.26-.15-.52-.23-.78.04-.25.08-.5.14-.74ZM45.55,38.78c0,1.07,0,2.14-.02,3.22,0,1.08-.04,2.17-.09,3.25-.29-.81-.51-1.65-.57-2.55-.27,2.18-.55,4.36-.82,6.54-.24-.6-.49-1.2-.73-1.81-.03-.1-.04-.2-.06-.31.28-2.77.98-5.48,2.18-8.12.03-.07.07-.15.11-.22ZM41.81,45.41c-.24.15-.49.31-.73.46-.67-.07-.73.49-.85,1.13-.02.11-.05.22-.08.33-.15-.67-.31-1.34-.46-2.01-.33-1.49-.61-3.02-.57-4.74,1.66,2.28,2.34,3.42,2.68,4.83ZM38.78,40.96c.15,2.48.59,4.9,1.12,7.31-.18.57-.38,1.14-.55,1.71-.1-.02-.19-.04-.29-.06-.09-.35-.18-.71-.27-1.06-.26-3.26-.52-6.52-.79-9.78.45.52.73,1.11.78,1.88ZM36.57,37.93c.33.21.63.42.9.64-.02,1.17-.03,2.35-.07,3.52-.26-1.39-.53-2.78-.83-4.17ZM36.81,50.35c-.04.43-.07.86-.12,1.3-.04-.04-.08-.08-.13-.11-.08-.61-.08-1.22-.05-1.84.1.22.2.43.3.65ZM35.2,47.01c-.12.26-.26.5-.47.74-.19-1.1-.37-2.19-.55-3.26.27.87.63,1.7,1.03,2.52ZM32.68,49.47c-.05.58-.11,1.16-.2,1.74-.26-.72-.4-1.41-.5-2.09.24.14.47.24.7.35ZM66.86,51.03c-.94-4.99.29-9.29.83-13.63.9,4.42-.38,8.72-.83,13.63ZM97.57,49.77c-.46-2.9-.08-5.71.89-8.44l-.89,8.44ZM186.69,51.26c-.04-.15-.07-.3-.11-.45-.18-1.16-.35-2.32-.49-3.46.34.52.64,1.05.88,1.6-.1.77-.19,1.54-.28,2.32ZM188.75,50.37c-.08-.15-.16-.3-.24-.45-.45-3.48.09-6.63.59-9.73.27,1.66.37,3.33.35,5.02-.23,1.67-.51,3.37-.7,5.16ZM189.27,39.16c.09-.59.18-1.17.25-1.76.22,1.06.3,2.11.31,3.16-.19-.47-.38-.93-.56-1.4ZM191.83,39.1c-.36-1.06-.44-2.22-.48-3.38,0-.27,0-.54,0-.81.68,0,1.35-.19,2.03-.34.57-.13,1.15-.2,1.38.54.28.88.61,1.76.29,2.83-.58-.33-1.31-.91-1.72-.17-.59,1.09-1.06.47-1.65-.05.11.68.18,1.12.15,1.39ZM195.71,45.27c-.01.07-.02.13-.03.2-.34-.75-.71-1.45-1.21-2.09.29,1.28.63,2.55.89,3.84-.01.05-.02.1-.03.16-.28-.99-.52-1.85-.77-2.7-.05.03-.1.05-.15.08.08.79.17,1.57.22,2.36.02.25.14.65-.21.69-.24.03-.54-.07-.73-.46-.67-1.35-.67-2.8-.78-4.24-.01-.18-.04-.37-.1-.88-.1.85-.19,1.66-.28,2.46,0-.53.03-1.07.08-1.6.05-.59-.56-1.65.82-1.67-.15-.12-.26-.25-.39-.37.46-.25.88-.43,1.16-.04.88,1.19,1.76,2.57,1.51,4.26ZM197.9,43.68c-.26.41-.05,1.59-.5,1.43-.87-.3-.62-1.48-.81-2.3-.09-.39,0-.79.56-.68.83.16.77.82.75,1.54ZM196.78,36.24c-.64,1.12-1.12.55-1.43-.34-.58-1.66-.45-3.41-.68-5.24,1.02.46,1.19,2.64,2.94,1.16.37,1.56.46,2.95.44,4.5-.45-.12-.78-.94-1.27-.08ZM198.68,36.21c-.25-1.53-.48-3.06-.67-4.6-.15-1.21-.16-2.35,1.62-2,.14.03.26,0,.37-.04-.46,2.42-.75,4.89-1.03,7.38-.13-.17-.24-.42-.29-.75ZM199.96,47.26c-.11-.91-.2-1.83-.26-2.75.19-.27.45-.53.8-.78.09,1.34.32,2.67.4,4.01.01.26.03.52.05.78-.4-.45-.73-.88-.98-1.27ZM202.78,48.26c-.4-.86-.32-1.72-.42-2.79.33.39.61.75.79,1.11-.08.56-.2,1.12-.37,1.68ZM204.44,42.97c-.17,0-.31-.01-.44-.05-.1-.63-.25-1.25-.51-1.87-.05.53-.07,1.06-.09,1.58-.15-.1-.3-.2-.46-.27-1.29-.56-1.37-1.26-.24-2.12.33-.25.68-.47,1.05-.67.39-.21.71-.23.7.38-.01,1,0,2,0,3.01ZM206.04,38.99c-.18,1.05-.29,2.13-.42,3.22-.69-2.48-.62-3.77.24-5.27.18.7.2,1.38.18,2.05ZM212.44,47.65c-.2-1.66-.35-3.31.45-4.92.11-.21.23-.42.35-.63-.26,1.78-.52,3.61-.81,5.55ZM213.5,40.38c-.1.11-.2.22-.3.34-.01-.87-.18-1.54.53-1.93-.08.52-.15,1.05-.23,1.58ZM214.17,38.77c.1.03.17.08.18.16,0,.22-.05.4-.13.57-.01-.24-.03-.49-.04-.73ZM214.46,44.84c-.08-1.47-.12-2.94-.19-4.42.53-.83,1.06-1.66,1.49-2.57-.47,2.3-.71,4.62-1.3,6.98ZM219.42,49.53s-.04-.07-.07-.1c-.38-2.78,0-5.48.94-8.1-.29,2.73-.58,5.47-.87,8.2ZM217.66,45.26c-.06-1.04.12-2.09.19-3.11-.94.28-.82,1.26-1.37,2.08-.15-2.11.02-3.93.15-5.75.08-1.06.5-1.76,1.6-1.99.57-.12,1.17-.32,1.4-1-.54-.3-1.19.12-1.7-.3.17-.58.94-.37,1.11-.98-1.42,0-1.58-.64-1.2-1.87.44-1.42.62-2.93.96-4.39.12-.51.08-1.17.79-1.37.89-.25,1.05-.7.62-1.57-.41-.83-.23-1.73.68-2.13.02,0,.03-.01.04-.02.18,7.64-1.44,14.92-3.26,22.41ZM222.07,49.21c-.1-.07-.23-.11-.37-.14,0-.37,0-.73,0-1.1.2-.08.4-.09.59.05-.06.4-.13.79-.21,1.19ZM223.34,43.3c.03-.39.07-.78.11-1.17.29.16.62.28.76.7-.36.12-.64.28-.87.47ZM234.56,45.12c-.88-1.4-1.65-2.87-2.2-4.46.52.65,1.04,1.3,1.56,1.96.56.71.69,1.72.65,2.42,0,.03,0,.05,0,.08ZM241.26,46.11c0-.12,0-.24,0-.37-.39,1.29-.71,2.34-.99,3.29-.17-1.1-.26-2.21-.4-3.32-.09-.72-.31-1.4-.57-2.06.03-2.05.18-3.98.4-6.01.31,1.04.63,2.08.95,3.12.55,1.79,1.39,3.75.62,5.36ZM246.37,43.59c-.3-2.05-.53-4.13-.36-6.55.86,2.33.43,4.44.36,6.55ZM248.34,48.58c-.68-2.39-.66-4.56-.47-7.12,1.22,2.48.9,4.67.47,7.12ZM256.13,51.33c-.26-3.92-.24-7.72.17-11.63.33,3.92.43,7.73-.17,11.63ZM258.31,50.64c-.4-1.98.48-3.87.32-5.83.32,1.97-.22,3.89-.32,5.83ZM260.51,48.11c.27-1.3-.21-2.36.73-3.44.18,1.27,0,2.23-.73,3.44ZM267.02,50.7v-3.12q.85.75,0,3.12ZM267.01,40.49c-.8-3.98-2.95-7.2-3.79-11.09.95.61,1.35,1.4,1.79,2.14.6,1,1.1,2.06,1.76,3.02,1.38,2.02,1.31,3.08.25,5.93ZM268.97,53.45c-.32-1.54-.26-3-.05-4.49,1.47.93,1.2,1.23.05,4.49ZM271.33,47.9c-.09.27-.16.75-.58.65-.35-.08-.39-.49-.37-.82.07-1.5.15-2.89.22-4.39.01-.23,0-.45,0-.68-.09-.01-.18-.02-.27-.03-.15,1.63-.31,3.16-.46,4.8-.11,0-.22,0-.34,0-.04-.53-.07-1.06-.11-1.59-.07-.94-.05-1.94-.73-2.55-1.18-1.07-.93-2.22-.56-3.42.23-.74.14-1.49.3-2.35.91.63,1.37,1.56,1.75,2.43.63,1.45,1.12,2.86,1.54,4.4.34,1.28,0,2.41-.39,3.55ZM278.15,45.98c-.34.46-.54.87-.72,1.42-.23-1.61-.23-3.11.4-4.97.41,1.4,1.12,2.45.32,3.56ZM292.97,54.26v-2.87h-.17c-.16.51-.31,1.03-.48,1.56-1.39-3.06-.93-6.14-.71-9.3,1.4,1.23,2.34,2.7,2.23,4.66-.11,2.04-.16,3.98-.88,5.96ZM307.28,45.37c.41,1.7.12,3.33-.49,5.25-.89-3.53-.61-6.78-.32-10.04.66,1.06,1.78,1.99.74,3.42-.29.41-.03.92.07,1.37ZM308.68,36.99c2.28,2.34,2.62,5.45.93,8.41-.46-2.85-.97-5.56-.93-8.41ZM310.55,50.05c-.78-1.45-.57-2.56.31-4,.05,1.51.39,2.67-.31,4ZM311.89,50.78c-.07-1.28-.15-2.56-.23-3.92.62,1.3.63,2.59.23,3.92ZM313.25,53.25c-.06-1.84-.19-3.68.29-5.5.23,1.85.24,3.69-.29,5.5ZM313.28,46.72c-.35.06-.62-.1-.76-.46-.36-.88-.13-1.61.51-2.28.55.59.45,1.35.65,2,.11.33.01.68-.41.75ZM321.57,50.82c-.1-1.71-.17-3.06-.26-4.59.95,1.53,1,2.19.26,4.59ZM323.89,51.83c-.48-.32-.23-.93-.56-1.42-.06.41-.1.75-.15,1.09-.03,0-.07-.01-.1-.02v-2.47c.74.84,1.81,1.59.81,2.82ZM339.29,54.42c-.86-1.7-.39-3.58-.7-5.45-.4.54-.12,1.09-.39,1.82-.83-2.43-.25-4.72-.38-6.95.2-.16.43-.44.57.03.97,3.46,1.77,6.94.9,10.55ZM343.19,44.79c-.42,2.08-.21,4.19-.5,6.29-.18-2.81-.37-5.63-.57-8.81.95.89,1.24,1.67,1.07,2.52ZM359.18,51.15c-.23-1.57.29-2.95.62-4.36.21,1.88,0,3.24-.62,4.36ZM364.52,50.45c-.44-.02-.15-.31-.15-.48,0-.22.03-.45-.02-.68.02.69-1.1,1.33-.05,2.08.19.14-.05.35-.21.38-.43.07-.66-.27-.59-.59.3-1.43.12-2.96.83-4.34.66,1.2.63,2.39.2,3.62ZM366.98,44.52c.72.72.56,1.59.73,2.39.05.24-.02.52-.3.51-.24,0-.41-.24-.42-.48-.02-.81,0-1.61,0-2.42ZM367.17,50.58c-.43-.86.03-1.63-.13-2.35,1,.68.84,1.42.13,2.35Z"/></g></svg>